<svg width="206" height="44" viewBox="0 0 206 44" fill="none" xmlns="http://www.w3.org/2000/svg">
<path d="M19.3156 0.92334V43.7293H13.7296V0.92334H19.3156ZM33.0746 0.92334V5.56849H0V0.92334H33.0746Z" fill="#261466"/>
<path d="M22.5178 9.15479H26.9583L38.2851 37.3412L49.5881 9.15479H54.0524L39.9948 43.7288H36.5279L22.5178 9.15479ZM21.0693 9.15479H24.9874L25.6285 30.2411V43.7288H21.0693V9.15479ZM51.5591 9.15479H55.4771V43.7288H50.9179V30.2411L51.5591 9.15479Z" fill="#DD251A"/>
<path d="M72.9791 2.56456L66.4388 20.5707H63.7657L71.2965 0.814145H73.0198L72.9791 2.56456ZM78.461 20.5707L71.9071 2.56456L71.8664 0.814145H73.5897L81.1477 20.5707H78.461ZM78.1218 13.257V15.4009H67.0223V13.257H78.1218Z" fill="#112233"/>
<path d="M92.2336 17.1785V5.88898H94.7575V20.5707H92.3557L92.2336 17.1785ZM92.7085 14.0847L93.7534 14.0576C93.7534 15.0345 93.6493 15.9391 93.4413 16.7714C93.2423 17.5946 92.9166 18.3092 92.4643 18.9153C92.012 19.5214 91.4195 19.9963 90.6867 20.34C89.954 20.6748 89.063 20.8421 88.0136 20.8421C87.299 20.8421 86.6432 20.7381 86.0461 20.53C85.4581 20.322 84.9515 20.0008 84.5264 19.5666C84.1012 19.1324 83.771 18.567 83.5358 17.8705C83.3097 17.1739 83.1966 16.3372 83.1966 15.3602V5.88898H85.7069V15.3873C85.7069 16.0477 85.7793 16.595 85.924 17.0292C86.0778 17.4544 86.2813 17.7936 86.5346 18.0469C86.7969 18.2911 87.0864 18.463 87.403 18.5625C87.7287 18.662 88.0634 18.7118 88.4071 18.7118C89.4746 18.7118 90.3204 18.5082 90.9446 18.1012C91.5687 17.685 92.0165 17.1287 92.2879 16.4322C92.5683 15.7266 92.7085 14.9441 92.7085 14.0847Z" fill="#112233"/>
<path d="M104.731 5.88898V7.81579H96.7928V5.88898H104.731ZM99.4795 2.32031H101.99V16.9342C101.99 17.4317 102.067 17.8072 102.22 18.0604C102.374 18.3137 102.573 18.4811 102.817 18.5625C103.062 18.6439 103.324 18.6846 103.605 18.6846C103.813 18.6846 104.03 18.6665 104.256 18.6303C104.491 18.5851 104.667 18.5489 104.785 18.5218L104.799 20.5707C104.6 20.634 104.337 20.6928 104.012 20.7471C103.695 20.8104 103.311 20.8421 102.858 20.8421C102.243 20.8421 101.678 20.72 101.162 20.4757C100.646 20.2315 100.235 19.8244 99.9273 19.2545C99.6288 18.6756 99.4795 17.8976 99.4795 16.9206V2.32031Z" fill="#112233"/>
<path d="M106.739 13.3927V13.0806C106.739 12.0222 106.893 11.0407 107.2 10.1361C107.508 9.22245 107.951 8.43092 108.53 7.76151C109.109 7.08306 109.81 6.55839 110.633 6.1875C111.456 5.80757 112.379 5.6176 113.401 5.6176C114.433 5.6176 115.36 5.80757 116.183 6.1875C117.015 6.55839 117.721 7.08306 118.3 7.76151C118.888 8.43092 119.336 9.22245 119.643 10.1361C119.951 11.0407 120.105 12.0222 120.105 13.0806V13.3927C120.105 14.4511 119.951 15.4326 119.643 16.3372C119.336 17.2418 118.888 18.0333 118.3 18.7118C117.721 19.3812 117.02 19.9058 116.197 20.2858C115.382 20.6567 114.46 20.8421 113.429 20.8421C112.397 20.8421 111.47 20.6567 110.647 20.2858C109.824 19.9058 109.118 19.3812 108.53 18.7118C107.951 18.0333 107.508 17.2418 107.2 16.3372C106.893 15.4326 106.739 14.4511 106.739 13.3927ZM109.249 13.0806V13.3927C109.249 14.1254 109.335 14.8174 109.507 15.4688C109.679 16.111 109.937 16.6809 110.28 17.1785C110.633 17.676 111.072 18.0695 111.597 18.359C112.121 18.6394 112.732 18.7796 113.429 18.7796C114.116 18.7796 114.718 18.6394 115.233 18.359C115.758 18.0695 116.192 17.676 116.536 17.1785C116.88 16.6809 117.137 16.111 117.309 15.4688C117.49 14.8174 117.581 14.1254 117.581 13.3927V13.0806C117.581 12.3569 117.49 11.6739 117.309 11.0317C117.137 10.3803 116.875 9.80592 116.522 9.30839C116.179 8.80181 115.744 8.40378 115.22 8.11431C114.704 7.82484 114.098 7.6801 113.401 7.6801C112.714 7.6801 112.108 7.82484 111.583 8.11431C111.068 8.40378 110.633 8.80181 110.28 9.30839C109.937 9.80592 109.679 10.3803 109.507 11.0317C109.335 11.6739 109.249 12.3569 109.249 13.0806Z" fill="#112233"/>
<path d="M125.749 8.80633V20.5707H123.225V5.88898H125.614L125.749 8.80633ZM125.234 12.6735L124.067 12.6328C124.076 11.6287 124.207 10.7015 124.46 9.85115C124.713 8.99178 125.089 8.24548 125.586 7.61225C126.084 6.97903 126.704 6.49054 127.445 6.14679C128.187 5.794 129.047 5.6176 130.024 5.6176C130.711 5.6176 131.344 5.71711 131.923 5.91612C132.502 6.10609 133.004 6.40913 133.429 6.82525C133.855 7.24136 134.185 7.77508 134.42 8.4264C134.655 9.07771 134.773 9.86472 134.773 10.7874V20.5707H132.262V10.9095C132.262 10.1406 132.131 9.52549 131.869 9.06415C131.616 8.6028 131.254 8.26809 130.783 8.06003C130.313 7.84293 129.761 7.73438 129.128 7.73438C128.386 7.73438 127.767 7.86554 127.269 8.12788C126.771 8.39021 126.373 8.75206 126.075 9.2134C125.776 9.67475 125.559 10.2039 125.424 10.801C125.297 11.389 125.234 12.0132 125.234 12.6735ZM134.746 11.2895L133.063 11.8051C133.072 11 133.203 10.2266 133.456 9.48479C133.719 8.74301 134.094 8.08265 134.583 7.5037C135.08 6.92475 135.691 6.46793 136.415 6.13322C137.138 5.78947 137.966 5.6176 138.898 5.6176C139.685 5.6176 140.381 5.72163 140.987 5.92969C141.602 6.13775 142.118 6.45888 142.534 6.89309C142.959 7.31826 143.28 7.86554 143.498 8.53495C143.715 9.20436 143.823 10.0004 143.823 10.9231V20.5707H141.299V10.896C141.299 10.0728 141.168 9.43503 140.906 8.98273C140.653 8.52138 140.291 8.20025 139.82 8.01933C139.359 7.82936 138.807 7.73438 138.165 7.73438C137.613 7.73438 137.125 7.82936 136.699 8.01933C136.274 8.20929 135.917 8.47163 135.628 8.80633C135.338 9.13199 135.116 9.5074 134.963 9.93257C134.818 10.3577 134.746 10.81 134.746 11.2895Z" fill="#112233"/>
<path d="M156.28 18.0604V10.5025C156.28 9.92352 156.162 9.42146 155.927 8.9963C155.701 8.56209 155.357 8.22738 154.896 7.99219C154.434 7.75699 153.864 7.63939 153.186 7.63939C152.553 7.63939 151.996 7.74794 151.517 7.96505C151.047 8.18215 150.676 8.4671 150.404 8.8199C150.142 9.1727 150.011 9.55263 150.011 9.9597H147.5C147.5 9.43503 147.636 8.91488 147.908 8.39926C148.179 7.88364 148.568 7.41776 149.074 7.00164C149.59 6.57648 150.205 6.24178 150.92 5.99753C151.644 5.74424 152.449 5.6176 153.335 5.6176C154.403 5.6176 155.343 5.79852 156.158 6.16036C156.981 6.5222 157.623 7.06949 158.084 7.80222C158.555 8.5259 158.79 9.43503 158.79 10.5296V17.3684C158.79 17.8569 158.831 18.3771 158.912 18.9289C159.003 19.4807 159.134 19.9556 159.306 20.3536V20.5707H156.687C156.56 20.2812 156.461 19.8968 156.388 19.4174C156.316 18.9289 156.28 18.4766 156.28 18.0604ZM156.714 11.6694L156.741 13.4334H154.204C153.489 13.4334 152.851 13.4922 152.29 13.6098C151.73 13.7183 151.259 13.8857 150.879 14.1118C150.499 14.338 150.21 14.6229 150.011 14.9667C149.812 15.3014 149.712 15.6949 149.712 16.1472C149.712 16.6086 149.816 17.0292 150.024 17.4091C150.232 17.7891 150.544 18.0921 150.961 18.3183C151.386 18.5354 151.906 18.6439 152.521 18.6439C153.29 18.6439 153.968 18.4811 154.556 18.1554C155.144 17.8298 155.61 17.4317 155.954 16.9613C156.307 16.491 156.497 16.0341 156.524 15.5909L157.596 16.7985C157.533 17.1785 157.361 17.5991 157.08 18.0604C156.8 18.5218 156.424 18.965 155.954 19.3902C155.493 19.8063 154.941 20.1546 154.299 20.435C153.665 20.7064 152.951 20.8421 152.155 20.8421C151.16 20.8421 150.287 20.6476 149.536 20.2586C148.794 19.8697 148.215 19.3495 147.799 18.6982C147.392 18.0378 147.188 17.3006 147.188 16.4864C147.188 15.6994 147.342 15.0074 147.65 14.4104C147.957 13.8043 148.401 13.3022 148.98 12.9042C149.558 12.4971 150.255 12.1896 151.069 11.9815C151.883 11.7734 152.792 11.6694 153.797 11.6694H156.714Z" fill="#112233"/>
<path d="M168.614 18.7796C169.211 18.7796 169.763 18.6575 170.269 18.4132C170.776 18.169 171.192 17.8343 171.518 17.4091C171.843 16.9749 172.029 16.4819 172.074 15.9301H174.462C174.417 16.7985 174.123 17.6081 173.58 18.359C173.047 19.1007 172.345 19.7023 171.477 20.1637C170.609 20.616 169.654 20.8421 168.614 20.8421C167.51 20.8421 166.547 20.6476 165.724 20.2586C164.91 19.8697 164.231 19.3359 163.688 18.6575C163.155 17.979 162.752 17.2011 162.481 16.3236C162.218 15.4371 162.087 14.5008 162.087 13.5148V12.9449C162.087 11.9589 162.218 11.0271 162.481 10.1497C162.752 9.26316 163.155 8.48067 163.688 7.80222C164.231 7.12377 164.91 6.59005 165.724 6.20107C166.547 5.81209 167.51 5.6176 168.614 5.6176C169.763 5.6176 170.767 5.8528 171.626 6.32319C172.486 6.78454 173.16 7.41776 173.648 8.22286C174.146 9.01891 174.417 9.92352 174.462 10.9367H172.074C172.029 10.3306 171.857 9.78331 171.558 9.29482C171.269 8.80633 170.871 8.41735 170.364 8.12788C169.867 7.82936 169.283 7.6801 168.614 7.6801C167.845 7.6801 167.198 7.83388 166.674 8.14145C166.158 8.43997 165.746 8.84704 165.439 9.36266C165.14 9.86924 164.923 10.4346 164.787 11.0588C164.661 11.6739 164.598 12.3026 164.598 12.9449V13.5148C164.598 14.1571 164.661 14.7903 164.787 15.4145C164.914 16.0387 165.127 16.604 165.425 17.1106C165.733 17.6172 166.144 18.0243 166.66 18.3318C167.185 18.6303 167.836 18.7796 168.614 18.7796ZM167.23 20.7064H169.035L168.872 21.4256C169.396 21.516 169.871 21.7331 170.297 22.0769C170.731 22.4206 170.948 22.986 170.948 23.773C170.948 24.1982 170.857 24.5826 170.676 24.9264C170.505 25.2792 170.247 25.5777 169.903 25.822C169.559 26.0752 169.13 26.2697 168.614 26.4054C168.107 26.5411 167.515 26.609 166.836 26.609L166.741 25.1571C167.158 25.1571 167.533 25.1118 167.868 25.0214C168.211 24.9309 168.483 24.7862 168.682 24.5872C168.89 24.3882 168.994 24.1303 168.994 23.8137C168.994 23.5152 168.917 23.28 168.763 23.1081C168.609 22.9363 168.37 22.8051 168.044 22.7146C167.727 22.6332 167.316 22.5744 166.809 22.5382L167.23 20.7064Z" fill="#112233"/>
<path d="M185.942 18.0604V10.5025C185.942 9.92352 185.824 9.42146 185.589 8.9963C185.363 8.56209 185.019 8.22738 184.558 7.99219C184.096 7.75699 183.526 7.63939 182.848 7.63939C182.215 7.63939 181.658 7.74794 181.179 7.96505C180.709 8.18215 180.338 8.4671 180.066 8.8199C179.804 9.1727 179.673 9.55263 179.673 9.9597H177.162C177.162 9.43503 177.298 8.91488 177.57 8.39926C177.841 7.88364 178.23 7.41776 178.737 7.00164C179.252 6.57648 179.867 6.24178 180.582 5.99753C181.306 5.74424 182.111 5.6176 182.997 5.6176C184.065 5.6176 185.005 5.79852 185.82 6.16036C186.643 6.5222 187.285 7.06949 187.746 7.80222C188.217 8.5259 188.452 9.43503 188.452 10.5296V17.3684C188.452 17.8569 188.493 18.3771 188.574 18.9289C188.665 19.4807 188.796 19.9556 188.968 20.3536V20.5707H186.349C186.222 20.2812 186.123 19.8968 186.05 19.4174C185.978 18.9289 185.942 18.4766 185.942 18.0604ZM186.376 11.6694L186.403 13.4334H183.866C183.151 13.4334 182.513 13.4922 181.952 13.6098C181.392 13.7183 180.921 13.8857 180.541 14.1118C180.161 14.338 179.872 14.6229 179.673 14.9667C179.474 15.3014 179.374 15.6949 179.374 16.1472C179.374 16.6086 179.478 17.0292 179.686 17.4091C179.894 17.7891 180.206 18.0921 180.623 18.3183C181.048 18.5354 181.568 18.6439 182.183 18.6439C182.952 18.6439 183.63 18.4811 184.218 18.1554C184.806 17.8298 185.272 17.4317 185.616 16.9613C185.969 16.491 186.159 16.0341 186.186 15.5909L187.258 16.7985C187.195 17.1785 187.023 17.5991 186.742 18.0604C186.462 18.5218 186.086 18.965 185.616 19.3902C185.155 19.8063 184.603 20.1546 183.961 20.435C183.327 20.7064 182.613 20.8421 181.817 20.8421C180.822 20.8421 179.949 20.6476 179.198 20.2586C178.456 19.8697 177.877 19.3495 177.461 18.6982C177.054 18.0378 176.85 17.3006 176.85 16.4864C176.85 15.6994 177.004 15.0074 177.312 14.4104C177.619 13.8043 178.063 13.3022 178.642 12.9042C179.22 12.4971 179.917 12.1896 180.731 11.9815C181.545 11.7734 182.454 11.6694 183.459 11.6694H186.376ZM186.389 0L188.086 0.14926C188.086 0.809622 187.954 1.38857 187.692 1.8861C187.43 2.38363 187.077 2.76809 186.634 3.03947C186.2 3.31086 185.706 3.44655 185.155 3.44655C184.693 3.44655 184.313 3.38322 184.015 3.25658C183.716 3.12089 183.449 2.97163 183.214 2.8088C182.979 2.63692 182.73 2.48766 182.468 2.36102C182.215 2.22533 181.898 2.15748 181.518 2.15748C181.138 2.15748 180.817 2.30222 180.555 2.59169C180.301 2.88117 180.175 3.23849 180.175 3.66365L178.479 3.58224C178.479 2.92188 178.605 2.34293 178.859 1.84539C179.121 1.33882 179.474 0.945312 179.917 0.664885C180.36 0.375411 180.853 0.230674 181.396 0.230674C181.785 0.230674 182.124 0.29852 182.414 0.434211C182.712 0.560855 182.993 0.710115 183.255 0.88199C183.517 1.04482 183.789 1.19408 184.069 1.32977C184.35 1.45641 184.671 1.51974 185.033 1.51974C185.412 1.51974 185.734 1.375 185.996 1.08553C186.258 0.787007 186.389 0.425164 186.389 0Z" fill="#112233"/>
<path d="M191.736 13.3927V13.0806C191.736 12.0222 191.889 11.0407 192.197 10.1361C192.505 9.22245 192.948 8.43092 193.527 7.76151C194.106 7.08306 194.807 6.55839 195.63 6.1875C196.453 5.80757 197.376 5.6176 198.398 5.6176C199.429 5.6176 200.357 5.80757 201.18 6.1875C202.012 6.55839 202.718 7.08306 203.297 7.76151C203.885 8.43092 204.332 9.22245 204.64 10.1361C204.947 11.0407 205.101 12.0222 205.101 13.0806V13.3927C205.101 14.4511 204.947 15.4326 204.64 16.3372C204.332 17.2418 203.885 18.0333 203.297 18.7118C202.718 19.3812 202.017 19.9058 201.193 20.2858C200.379 20.6567 199.456 20.8421 198.425 20.8421C197.394 20.8421 196.467 20.6567 195.644 20.2858C194.82 19.9058 194.115 19.3812 193.527 18.7118C192.948 18.0333 192.505 17.2418 192.197 16.3372C191.889 15.4326 191.736 14.4511 191.736 13.3927ZM194.246 13.0806V13.3927C194.246 14.1254 194.332 14.8174 194.504 15.4688C194.676 16.111 194.933 16.6809 195.277 17.1785C195.63 17.676 196.069 18.0695 196.593 18.359C197.118 18.6394 197.729 18.7796 198.425 18.7796C199.113 18.7796 199.714 18.6394 200.23 18.359C200.755 18.0695 201.189 17.676 201.533 17.1785C201.876 16.6809 202.134 16.111 202.306 15.4688C202.487 14.8174 202.577 14.1254 202.577 13.3927V13.0806C202.577 12.3569 202.487 11.6739 202.306 11.0317C202.134 10.3803 201.872 9.80592 201.519 9.30839C201.175 8.80181 200.741 8.40378 200.216 8.11431C199.701 7.82484 199.095 7.6801 198.398 7.6801C197.711 7.6801 197.105 7.82484 196.58 8.11431C196.064 8.40378 195.63 8.80181 195.277 9.30839C194.933 9.80592 194.676 10.3803 194.504 11.0317C194.332 11.6739 194.246 12.3569 194.246 13.0806Z" fill="#112233"/>
<path d="M68.4741 23.9725V43.7291H65.8552V23.9725H68.4741Z" fill="#112233"/>
<path d="M75.3671 32.1818V43.7291H72.8569V29.0473H75.2315L75.3671 32.1818ZM74.7701 35.8319L73.7253 35.7912C73.7343 34.787 73.8836 33.8598 74.1731 33.0095C74.4625 32.1501 74.8696 31.4038 75.3943 30.7706C75.919 30.1374 76.5431 29.6489 77.2668 29.3051C77.9995 28.9523 78.8092 28.7759 79.6957 28.7759C80.4194 28.7759 81.0707 28.8754 81.6496 29.0745C82.2286 29.2644 82.7216 29.572 83.1287 29.9972C83.5448 30.4223 83.8614 30.9741 84.0785 31.6526C84.2956 32.322 84.4042 33.1407 84.4042 34.1086V43.7291H81.8803V34.0815C81.8803 33.3125 81.7672 32.6974 81.5411 32.2361C81.3149 31.7657 80.9847 31.4264 80.5505 31.2184C80.1163 31.0013 79.5826 30.8927 78.9494 30.8927C78.3252 30.8927 77.7553 31.0239 77.2397 31.2862C76.7331 31.5486 76.2944 31.9104 75.9235 32.3717C75.5616 32.8331 75.2767 33.3623 75.0686 33.9593C74.8696 34.5473 74.7701 35.1715 74.7701 35.8319Z" fill="#112233"/>
<path d="M97.4712 40.8796V22.887H99.995V43.7291H97.6883L97.4712 40.8796ZM87.5929 36.551V36.2661C87.5929 35.1444 87.7286 34.1267 88 33.213C88.2804 32.2903 88.6739 31.4988 89.1805 30.8384C89.6961 30.1781 90.3067 29.6715 91.0123 29.3187C91.7269 28.9569 92.523 28.7759 93.4005 28.7759C94.3232 28.7759 95.1283 28.9388 95.8158 29.2644C96.5123 29.581 97.1003 30.0469 97.5797 30.662C98.0682 31.2681 98.4527 32.0009 98.7331 32.8602C99.0135 33.7196 99.208 34.6921 99.3166 35.7776V37.0259C99.2171 38.1024 99.0226 39.0703 98.7331 39.9297C98.4527 40.7891 98.0682 41.5218 97.5797 42.1279C97.1003 42.734 96.5123 43.1999 95.8158 43.5255C95.1192 43.8421 94.3051 44.0004 93.3733 44.0004C92.5139 44.0004 91.7269 43.815 91.0123 43.4441C90.3067 43.0732 89.6961 42.5531 89.1805 41.8837C88.6739 41.2143 88.2804 40.4273 88 39.5227C87.7286 38.609 87.5929 37.6185 87.5929 36.551ZM90.1167 36.2661V36.551C90.1167 37.2838 90.1891 37.9713 90.3338 38.6135C90.4876 39.2558 90.7228 39.8212 91.0394 40.3097C91.356 40.7981 91.7586 41.1826 92.2471 41.463C92.7356 41.7344 93.319 41.8701 93.9975 41.8701C94.8297 41.8701 95.5127 41.6937 96.0464 41.3409C96.5892 40.9881 97.0234 40.5222 97.3491 39.9433C97.6747 39.3643 97.928 38.7356 98.1089 38.0572V34.787C98.0004 34.2895 97.8421 33.8101 97.634 33.3487C97.435 32.8783 97.1727 32.4622 96.847 32.1004C96.5304 31.7295 96.1369 31.4355 95.6665 31.2184C95.2051 31.0013 94.6579 30.8927 94.0246 30.8927C93.3371 30.8927 92.7446 31.0375 92.2471 31.3269C91.7586 31.6074 91.356 31.9963 91.0394 32.4939C90.7228 32.9824 90.4876 33.5523 90.3338 34.2036C90.1891 34.8458 90.1167 35.5333 90.1167 36.2661Z" fill="#112233"/>
<path d="M112.886 40.3368V29.0473H115.41V43.7291H113.008L112.886 40.3368ZM113.361 37.243L114.405 37.2159C114.405 38.1929 114.301 39.0975 114.093 39.9297C113.894 40.7529 113.569 41.4676 113.116 42.0736C112.664 42.6797 112.072 43.1546 111.339 43.4984C110.606 43.8331 109.715 44.0004 108.666 44.0004C107.951 44.0004 107.295 43.8964 106.698 43.6884C106.11 43.4803 105.604 43.1592 105.178 42.725C104.753 42.2907 104.423 41.7254 104.188 41.0288C103.962 40.3323 103.849 39.4955 103.849 38.5185V29.0473H106.359V38.5457C106.359 39.206 106.431 39.7533 106.576 40.1875C106.73 40.6127 106.933 40.9519 107.187 41.2052C107.449 41.4495 107.738 41.6213 108.055 41.7208C108.381 41.8203 108.715 41.8701 109.059 41.8701C110.127 41.8701 110.972 41.6666 111.597 41.2595C112.221 40.8434 112.669 40.287 112.94 39.5905C113.22 38.8849 113.361 38.1024 113.361 37.243Z" fill="#112233"/>
<path d="M127.785 39.8347C127.785 39.4729 127.703 39.1382 127.54 38.8306C127.386 38.514 127.065 38.2291 126.577 37.9758C126.097 37.7134 125.374 37.4873 124.406 37.2973C123.592 37.1254 122.854 36.9219 122.194 36.6867C121.543 36.4515 120.986 36.1666 120.525 35.8319C120.073 35.4972 119.724 35.1037 119.48 34.6514C119.236 34.1991 119.114 33.6699 119.114 33.0638C119.114 32.4848 119.241 31.9375 119.494 31.4219C119.756 30.9063 120.122 30.4495 120.593 30.0514C121.072 29.6534 121.647 29.3413 122.316 29.1152C122.986 28.889 123.732 28.7759 124.555 28.7759C125.731 28.7759 126.735 28.984 127.567 29.4001C128.4 29.8162 129.037 30.3726 129.481 31.0691C129.924 31.7566 130.146 32.521 130.146 33.3623H127.635C127.635 32.9552 127.513 32.5617 127.269 32.1818C127.034 31.7928 126.685 31.4717 126.224 31.2184C125.772 30.9651 125.215 30.8384 124.555 30.8384C123.859 30.8384 123.293 30.947 122.859 31.1641C122.434 31.3722 122.122 31.639 121.923 31.9647C121.733 32.2903 121.638 32.6341 121.638 32.9959C121.638 33.2673 121.683 33.5116 121.773 33.7287C121.873 33.9367 122.045 34.1312 122.289 34.3121C122.533 34.484 122.877 34.6468 123.32 34.8006C123.764 34.9544 124.329 35.1082 125.016 35.262C126.22 35.5333 127.21 35.859 127.988 36.2389C128.766 36.6189 129.345 37.0847 129.725 37.6365C130.105 38.1884 130.295 38.8578 130.295 39.6448C130.295 40.287 130.159 40.875 129.888 41.4088C129.625 41.9425 129.241 42.4038 128.734 42.7928C128.237 43.1727 127.64 43.4713 126.943 43.6884C126.256 43.8964 125.482 44.0004 124.623 44.0004C123.329 44.0004 122.235 43.7698 121.339 43.3084C120.444 42.8471 119.765 42.25 119.304 41.5173C118.842 40.7846 118.612 40.0111 118.612 39.197H121.136C121.172 39.8845 121.371 40.4318 121.733 40.8389C122.095 41.2369 122.538 41.5218 123.062 41.6937C123.587 41.8565 124.107 41.9379 124.623 41.9379C125.31 41.9379 125.885 41.8475 126.346 41.6666C126.817 41.4856 127.174 41.2369 127.418 40.9203C127.662 40.6037 127.785 40.2418 127.785 39.8347Z" fill="#112233"/>
<path d="M139.739 29.0473V30.9741H131.801V29.0473H139.739ZM134.488 25.4787H136.998V40.0926C136.998 40.5901 137.075 40.9655 137.229 41.2188C137.382 41.4721 137.581 41.6394 137.826 41.7208C138.07 41.8023 138.332 41.843 138.613 41.843C138.821 41.843 139.038 41.8249 139.264 41.7887C139.499 41.7435 139.676 41.7073 139.793 41.6801L139.807 43.7291C139.608 43.7924 139.345 43.8512 139.02 43.9055C138.703 43.9688 138.319 44.0004 137.866 44.0004C137.251 44.0004 136.686 43.8783 136.17 43.6341C135.655 43.3898 135.243 42.9828 134.935 42.4129C134.637 41.8339 134.488 41.056 134.488 40.079V25.4787Z" fill="#112233"/>
<path d="M145.194 31.3541V43.7291H142.683V29.0473H145.126L145.194 31.3541ZM149.78 28.9659L149.766 31.2998C149.558 31.2546 149.359 31.2274 149.169 31.2184C148.988 31.2003 148.78 31.1912 148.545 31.1912C147.966 31.1912 147.455 31.2817 147.012 31.4626C146.569 31.6435 146.193 31.8968 145.886 32.2225C145.578 32.5481 145.334 32.9371 145.153 33.3894C144.981 33.8327 144.868 34.3212 144.814 34.8549L144.108 35.262C144.108 34.3754 144.194 33.5432 144.366 32.7653C144.547 31.9873 144.823 31.2998 145.194 30.7028C145.565 30.0967 146.035 29.6263 146.605 29.2916C147.184 28.9478 147.871 28.7759 148.667 28.7759C148.848 28.7759 149.056 28.7986 149.291 28.8438C149.527 28.88 149.69 28.9207 149.78 28.9659Z" fill="#112233"/>
<path d="M154.828 29.0473V43.7291H152.304V29.0473H154.828ZM152.114 25.153C152.114 24.7459 152.236 24.4022 152.48 24.1217C152.734 23.8413 153.104 23.7011 153.593 23.7011C154.072 23.7011 154.439 23.8413 154.692 24.1217C154.954 24.4022 155.085 24.7459 155.085 25.153C155.085 25.542 154.954 25.8767 154.692 26.1571C154.439 26.4285 154.072 26.5642 153.593 26.5642C153.104 26.5642 152.734 26.4285 152.48 26.1571C152.236 25.8767 152.114 25.542 152.114 25.153Z" fill="#112233"/>
<path d="M167.515 41.2188V33.6608C167.515 33.0819 167.397 32.5798 167.162 32.1546C166.936 31.7204 166.592 31.3857 166.131 31.1505C165.669 30.9153 165.099 30.7977 164.421 30.7977C163.788 30.7977 163.231 30.9063 162.752 31.1234C162.282 31.3405 161.911 31.6254 161.639 31.9782C161.377 32.331 161.246 32.711 161.246 33.118H158.736C158.736 32.5934 158.871 32.0732 159.143 31.5576C159.414 31.042 159.803 30.5761 160.31 30.16C160.825 29.7348 161.44 29.4001 162.155 29.1559C162.879 28.9026 163.684 28.7759 164.57 28.7759C165.638 28.7759 166.578 28.9569 167.393 29.3187C168.216 29.6805 168.858 30.2278 169.319 30.9606C169.79 31.6842 170.025 32.5934 170.025 33.6879V40.5268C170.025 41.0153 170.066 41.5354 170.147 42.0872C170.238 42.639 170.369 43.1139 170.541 43.512V43.7291H167.922C167.795 43.4396 167.696 43.0551 167.623 42.5757C167.551 42.0872 167.515 41.6349 167.515 41.2188ZM167.949 34.8278L167.976 36.5917H165.439C164.724 36.5917 164.086 36.6505 163.525 36.7681C162.965 36.8767 162.494 37.044 162.114 37.2702C161.734 37.4963 161.445 37.7813 161.246 38.125C161.047 38.4597 160.947 38.8532 160.947 39.3055C160.947 39.7669 161.051 40.1875 161.259 40.5675C161.467 40.9474 161.78 41.2504 162.196 41.4766C162.621 41.6937 163.141 41.8023 163.756 41.8023C164.525 41.8023 165.203 41.6394 165.791 41.3138C166.379 40.9881 166.845 40.5901 167.189 40.1197C167.542 39.6493 167.732 39.1925 167.759 38.7492L168.831 39.9569C168.768 40.3368 168.596 40.7574 168.315 41.2188C168.035 41.6801 167.66 42.1234 167.189 42.5486C166.728 42.9647 166.176 43.3129 165.534 43.5934C164.9 43.8648 164.186 44.0004 163.39 44.0004C162.395 44.0004 161.522 43.806 160.771 43.417C160.029 43.028 159.45 42.5078 159.034 41.8565C158.627 41.1962 158.423 40.4589 158.423 39.6448C158.423 38.8578 158.577 38.1657 158.885 37.5687C159.192 36.9626 159.636 36.4606 160.215 36.0625C160.794 35.6555 161.49 35.3479 162.304 35.1398C163.118 34.9318 164.028 34.8278 165.032 34.8278H167.949Z" fill="#112233"/>
<path d="M176.701 22.887V43.7291H174.177V22.887H176.701Z" fill="#112233"/>
</svg>
