<svg width="154" height="41" viewBox="0 0 154 41" fill="none" xmlns="http://www.w3.org/2000/svg">
<path d="M68.3457 14.3916L64.8652 25H62.0615L66.8164 12.2031H68.6006L68.3457 14.3916ZM71.2373 25L67.748 14.3916L67.4668 12.2031H69.2686L74.0498 25H71.2373ZM71.0791 20.2363V22.3018H64.3203V20.2363H71.0791Z" fill="#F0F4F7"/>
<path d="M80.5977 22.7236V15.4902H83.1289V25H80.7471L80.5977 22.7236ZM80.8789 20.7725L81.626 20.7549C81.626 21.3877 81.5527 21.9766 81.4062 22.5215C81.2598 23.0605 81.04 23.5293 80.7471 23.9277C80.4541 24.3203 80.085 24.6279 79.6396 24.8506C79.1943 25.0674 78.6699 25.1758 78.0664 25.1758C77.6035 25.1758 77.1758 25.1113 76.7832 24.9824C76.3965 24.8477 76.0625 24.6396 75.7812 24.3584C75.5059 24.0713 75.2891 23.7051 75.1309 23.2598C74.9785 22.8086 74.9023 22.2666 74.9023 21.6338V15.4902H77.4336V21.6514C77.4336 21.9326 77.4658 22.1699 77.5303 22.3633C77.6006 22.5566 77.6973 22.7148 77.8203 22.8379C77.9434 22.9609 78.0869 23.0488 78.251 23.1016C78.4209 23.1543 78.6084 23.1807 78.8135 23.1807C79.335 23.1807 79.7451 23.0752 80.0439 22.8643C80.3486 22.6533 80.5625 22.3662 80.6855 22.0029C80.8145 21.6338 80.8789 21.2236 80.8789 20.7725Z" fill="#F0F4F7"/>
<path d="M89.7207 15.4902V17.2832H84.1836V15.4902H89.7207ZM85.5547 13.1436H88.0859V22.1348C88.0859 22.4102 88.1211 22.6211 88.1914 22.7676C88.2676 22.9141 88.3789 23.0166 88.5254 23.0752C88.6719 23.1279 88.8564 23.1543 89.0791 23.1543C89.2373 23.1543 89.3779 23.1484 89.501 23.1367C89.6299 23.1191 89.7383 23.1016 89.8262 23.084L89.835 24.9473C89.6182 25.0176 89.3838 25.0732 89.1318 25.1143C88.8799 25.1553 88.6016 25.1758 88.2969 25.1758C87.7402 25.1758 87.2539 25.085 86.8379 24.9033C86.4277 24.7158 86.1113 24.417 85.8887 24.0068C85.666 23.5967 85.5547 23.0576 85.5547 22.3896V13.1436Z" fill="#F0F4F7"/>
<path d="M90.5293 20.3418V20.1572C90.5293 19.46 90.6289 18.8184 90.8281 18.2324C91.0273 17.6406 91.3174 17.1279 91.6982 16.6943C92.0791 16.2607 92.5479 15.9238 93.1045 15.6836C93.6611 15.4375 94.2998 15.3145 95.0205 15.3145C95.7412 15.3145 96.3828 15.4375 96.9453 15.6836C97.5078 15.9238 97.9795 16.2607 98.3604 16.6943C98.7471 17.1279 99.04 17.6406 99.2393 18.2324C99.4385 18.8184 99.5381 19.46 99.5381 20.1572V20.3418C99.5381 21.0332 99.4385 21.6748 99.2393 22.2666C99.04 22.8525 98.7471 23.3652 98.3604 23.8047C97.9795 24.2383 97.5107 24.5752 96.9541 24.8154C96.3975 25.0557 95.7588 25.1758 95.0381 25.1758C94.3174 25.1758 93.6758 25.0557 93.1133 24.8154C92.5566 24.5752 92.085 24.2383 91.6982 23.8047C91.3174 23.3652 91.0273 22.8525 90.8281 22.2666C90.6289 21.6748 90.5293 21.0332 90.5293 20.3418ZM93.0605 20.1572V20.3418C93.0605 20.7402 93.0957 21.1123 93.166 21.458C93.2363 21.8037 93.3477 22.1084 93.5 22.3721C93.6582 22.6299 93.8633 22.832 94.1152 22.9785C94.3672 23.125 94.6748 23.1982 95.0381 23.1982C95.3896 23.1982 95.6914 23.125 95.9434 22.9785C96.1953 22.832 96.3975 22.6299 96.5498 22.3721C96.7021 22.1084 96.8135 21.8037 96.8838 21.458C96.96 21.1123 96.998 20.7402 96.998 20.3418V20.1572C96.998 19.7705 96.96 19.4072 96.8838 19.0674C96.8135 18.7217 96.6992 18.417 96.541 18.1533C96.3887 17.8838 96.1865 17.6729 95.9346 17.5205C95.6826 17.3682 95.3779 17.292 95.0205 17.292C94.6631 17.292 94.3584 17.3682 94.1064 17.5205C93.8604 17.6729 93.6582 17.8838 93.5 18.1533C93.3477 18.417 93.2363 18.7217 93.166 19.0674C93.0957 19.4072 93.0605 19.7705 93.0605 20.1572Z" fill="#F0F4F7"/>
<path d="M103.625 17.459V25H101.085V15.4902H103.467L103.625 17.459ZM103.273 19.9111H102.57C102.57 19.249 102.649 18.6396 102.808 18.083C102.972 17.5205 103.209 17.0342 103.52 16.624C103.836 16.208 104.226 15.8857 104.688 15.6572C105.151 15.4287 105.688 15.3145 106.297 15.3145C106.719 15.3145 107.105 15.3789 107.457 15.5078C107.809 15.6309 108.11 15.8271 108.362 16.0967C108.62 16.3604 108.819 16.7061 108.96 17.1338C109.101 17.5557 109.171 18.0625 109.171 18.6543V25H106.64V18.9355C106.64 18.502 106.581 18.168 106.464 17.9336C106.347 17.6992 106.18 17.5352 105.963 17.4414C105.752 17.3477 105.497 17.3008 105.198 17.3008C104.87 17.3008 104.583 17.3682 104.337 17.5029C104.097 17.6377 103.897 17.8252 103.739 18.0654C103.581 18.2998 103.464 18.5752 103.388 18.8916C103.312 19.208 103.273 19.5479 103.273 19.9111ZM108.934 19.6211L108.028 19.7354C108.028 19.1143 108.104 18.5371 108.257 18.0039C108.415 17.4707 108.646 17.002 108.951 16.5977C109.262 16.1934 109.646 15.8799 110.103 15.6572C110.56 15.4287 111.087 15.3145 111.685 15.3145C112.142 15.3145 112.558 15.3818 112.933 15.5166C113.308 15.6455 113.627 15.8535 113.891 16.1406C114.16 16.4219 114.365 16.791 114.506 17.248C114.652 17.7051 114.726 18.2646 114.726 18.9268V25H112.186V18.9268C112.186 18.4873 112.127 18.1533 112.01 17.9248C111.898 17.6904 111.734 17.5293 111.518 17.4414C111.307 17.3477 111.055 17.3008 110.762 17.3008C110.457 17.3008 110.19 17.3623 109.962 17.4854C109.733 17.6025 109.543 17.7666 109.391 17.9775C109.238 18.1885 109.124 18.4346 109.048 18.7158C108.972 18.9912 108.934 19.293 108.934 19.6211Z" fill="#F0F4F7"/>
<path d="M121.818 22.8555V18.6191C121.818 18.3145 121.769 18.0537 121.669 17.8369C121.569 17.6143 121.414 17.4414 121.203 17.3184C120.998 17.1953 120.731 17.1338 120.403 17.1338C120.122 17.1338 119.879 17.1836 119.674 17.2832C119.469 17.377 119.311 17.5146 119.199 17.6963C119.088 17.8721 119.032 18.0801 119.032 18.3203H116.501C116.501 17.916 116.595 17.5322 116.782 17.1689C116.97 16.8057 117.242 16.4863 117.6 16.2109C117.957 15.9297 118.382 15.71 118.874 15.5518C119.372 15.3936 119.929 15.3145 120.544 15.3145C121.282 15.3145 121.938 15.4375 122.513 15.6836C123.087 15.9297 123.538 16.2988 123.866 16.791C124.2 17.2832 124.367 17.8984 124.367 18.6367V22.7061C124.367 23.2275 124.399 23.6553 124.464 23.9893C124.528 24.3174 124.622 24.6045 124.745 24.8506V25H122.188C122.064 24.7422 121.971 24.4199 121.906 24.0332C121.848 23.6406 121.818 23.248 121.818 22.8555ZM122.152 19.208L122.17 20.6406H120.755C120.421 20.6406 120.131 20.6787 119.885 20.7549C119.639 20.8311 119.437 20.9395 119.278 21.0801C119.12 21.2148 119.003 21.373 118.927 21.5547C118.856 21.7363 118.821 21.9355 118.821 22.1523C118.821 22.3691 118.871 22.5654 118.971 22.7412C119.07 22.9111 119.214 23.0459 119.401 23.1455C119.589 23.2393 119.809 23.2861 120.061 23.2861C120.441 23.2861 120.772 23.21 121.054 23.0576C121.335 22.9053 121.552 22.7178 121.704 22.4951C121.862 22.2725 121.944 22.0615 121.95 21.8623L122.618 22.9346C122.524 23.1748 122.396 23.4238 122.231 23.6816C122.073 23.9395 121.871 24.1826 121.625 24.4111C121.379 24.6338 121.083 24.8184 120.737 24.9648C120.392 25.1055 119.981 25.1758 119.507 25.1758C118.903 25.1758 118.355 25.0557 117.863 24.8154C117.377 24.5693 116.99 24.2324 116.703 23.8047C116.422 23.3711 116.281 22.8789 116.281 22.3281C116.281 21.8301 116.375 21.3877 116.562 21.001C116.75 20.6143 117.025 20.2891 117.389 20.0254C117.758 19.7559 118.218 19.5537 118.769 19.4189C119.319 19.2783 119.958 19.208 120.685 19.208H122.152Z" fill="#F0F4F7"/>
<path d="M130.247 23.1982C130.558 23.1982 130.833 23.1396 131.073 23.0225C131.313 22.8994 131.501 22.7295 131.636 22.5127C131.776 22.29 131.85 22.0293 131.855 21.7305H134.237C134.231 22.3984 134.053 22.9932 133.701 23.5146C133.35 24.0303 132.878 24.4375 132.286 24.7363C131.694 25.0293 131.032 25.1758 130.3 25.1758C129.562 25.1758 128.917 25.0527 128.366 24.8066C127.821 24.5605 127.367 24.2207 127.004 23.7871C126.641 23.3477 126.368 22.8379 126.187 22.2578C126.005 21.6719 125.914 21.0449 125.914 20.377V20.1221C125.914 19.4482 126.005 18.8213 126.187 18.2412C126.368 17.6553 126.641 17.1455 127.004 16.7119C127.367 16.2725 127.821 15.9297 128.366 15.6836C128.911 15.4375 129.55 15.3145 130.282 15.3145C131.062 15.3145 131.744 15.4639 132.33 15.7627C132.922 16.0615 133.385 16.4893 133.719 17.0459C134.059 17.5967 134.231 18.25 134.237 19.0059H131.855C131.85 18.6895 131.782 18.4023 131.653 18.1445C131.53 17.8867 131.349 17.6816 131.108 17.5293C130.874 17.3711 130.584 17.292 130.238 17.292C129.869 17.292 129.567 17.3711 129.333 17.5293C129.099 17.6816 128.917 17.8926 128.788 18.1621C128.659 18.4258 128.568 18.7275 128.516 19.0674C128.469 19.4014 128.445 19.7529 128.445 20.1221V20.377C128.445 20.7461 128.469 21.1006 128.516 21.4404C128.562 21.7803 128.65 22.082 128.779 22.3457C128.914 22.6094 129.099 22.8174 129.333 22.9697C129.567 23.1221 129.872 23.1982 130.247 23.1982ZM129.298 24.9648H131.205L131.108 25.4834C131.442 25.542 131.747 25.6826 132.022 25.9053C132.298 26.1279 132.436 26.4941 132.436 27.0039C132.436 27.3145 132.368 27.5957 132.233 27.8477C132.104 28.0996 131.911 28.3164 131.653 28.498C131.396 28.6855 131.073 28.8262 130.687 28.9199C130.3 29.0195 129.854 29.0693 129.351 29.0693L129.289 27.6631C129.477 27.6631 129.646 27.6367 129.799 27.584C129.951 27.5312 130.071 27.4492 130.159 27.3379C130.247 27.2324 130.291 27.0918 130.291 26.916C130.291 26.752 130.247 26.623 130.159 26.5293C130.071 26.4355 129.934 26.3652 129.746 26.3184C129.564 26.2715 129.324 26.2393 129.025 26.2217L129.298 24.9648Z" fill="#F0F4F7"/>
<path d="M140.838 22.8555V18.6191C140.838 18.3145 140.788 18.0537 140.688 17.8369C140.589 17.6143 140.434 17.4414 140.223 17.3184C140.018 17.1953 139.751 17.1338 139.423 17.1338C139.142 17.1338 138.898 17.1836 138.693 17.2832C138.488 17.377 138.33 17.5146 138.219 17.6963C138.107 17.8721 138.052 18.0801 138.052 18.3203H135.521C135.521 17.916 135.614 17.5322 135.802 17.1689C135.989 16.8057 136.262 16.4863 136.619 16.2109C136.977 15.9297 137.401 15.71 137.894 15.5518C138.392 15.3936 138.948 15.3145 139.563 15.3145C140.302 15.3145 140.958 15.4375 141.532 15.6836C142.106 15.9297 142.558 16.2988 142.886 16.791C143.22 17.2832 143.387 17.8984 143.387 18.6367V22.7061C143.387 23.2275 143.419 23.6553 143.483 23.9893C143.548 24.3174 143.642 24.6045 143.765 24.8506V25H141.207C141.084 24.7422 140.99 24.4199 140.926 24.0332C140.867 23.6406 140.838 23.248 140.838 22.8555ZM141.172 19.208L141.189 20.6406H139.774C139.44 20.6406 139.15 20.6787 138.904 20.7549C138.658 20.8311 138.456 20.9395 138.298 21.0801C138.14 21.2148 138.022 21.373 137.946 21.5547C137.876 21.7363 137.841 21.9355 137.841 22.1523C137.841 22.3691 137.891 22.5654 137.99 22.7412C138.09 22.9111 138.233 23.0459 138.421 23.1455C138.608 23.2393 138.828 23.2861 139.08 23.2861C139.461 23.2861 139.792 23.21 140.073 23.0576C140.354 22.9053 140.571 22.7178 140.724 22.4951C140.882 22.2725 140.964 22.0615 140.97 21.8623L141.638 22.9346C141.544 23.1748 141.415 23.4238 141.251 23.6816C141.093 23.9395 140.891 24.1826 140.645 24.4111C140.398 24.6338 140.103 24.8184 139.757 24.9648C139.411 25.1055 139.001 25.1758 138.526 25.1758C137.923 25.1758 137.375 25.0557 136.883 24.8154C136.396 24.5693 136.01 24.2324 135.723 23.8047C135.441 23.3711 135.301 22.8789 135.301 22.3281C135.301 21.8301 135.395 21.3877 135.582 21.001C135.77 20.6143 136.045 20.2891 136.408 20.0254C136.777 19.7559 137.237 19.5537 137.788 19.4189C138.339 19.2783 138.978 19.208 139.704 19.208H141.172ZM141.4 11.5439L142.859 11.6406C142.859 12.0684 142.774 12.458 142.604 12.8096C142.435 13.1553 142.2 13.4336 141.901 13.6445C141.603 13.8496 141.26 13.9521 140.873 13.9521C140.592 13.9521 140.349 13.9141 140.144 13.8379C139.944 13.7617 139.76 13.6738 139.59 13.5742C139.42 13.4688 139.244 13.3779 139.062 13.3018C138.887 13.2256 138.685 13.1875 138.456 13.1875C138.251 13.1875 138.075 13.2607 137.929 13.4072C137.788 13.5537 137.718 13.7646 137.718 14.04L136.25 13.9609C136.25 13.5391 136.335 13.1523 136.505 12.8008C136.675 12.4492 136.909 12.168 137.208 11.957C137.507 11.7402 137.847 11.6318 138.228 11.6318C138.468 11.6318 138.688 11.6729 138.887 11.7549C139.086 11.8311 139.276 11.9189 139.458 12.0186C139.646 12.1182 139.836 12.2061 140.029 12.2822C140.223 12.3584 140.428 12.3965 140.645 12.3965C140.85 12.3965 141.025 12.3232 141.172 12.1768C141.324 12.0244 141.4 11.8135 141.4 11.5439Z" fill="#F0F4F7"/>
<path d="M144.934 20.3418V20.1572C144.934 19.46 145.033 18.8184 145.232 18.2324C145.432 17.6406 145.722 17.1279 146.103 16.6943C146.483 16.2607 146.952 15.9238 147.509 15.6836C148.065 15.4375 148.704 15.3145 149.425 15.3145C150.146 15.3145 150.787 15.4375 151.35 15.6836C151.912 15.9238 152.384 16.2607 152.765 16.6943C153.151 17.1279 153.444 17.6406 153.644 18.2324C153.843 18.8184 153.942 19.46 153.942 20.1572V20.3418C153.942 21.0332 153.843 21.6748 153.644 22.2666C153.444 22.8525 153.151 23.3652 152.765 23.8047C152.384 24.2383 151.915 24.5752 151.358 24.8154C150.802 25.0557 150.163 25.1758 149.442 25.1758C148.722 25.1758 148.08 25.0557 147.518 24.8154C146.961 24.5752 146.489 24.2383 146.103 23.8047C145.722 23.3652 145.432 22.8525 145.232 22.2666C145.033 21.6748 144.934 21.0332 144.934 20.3418ZM147.465 20.1572V20.3418C147.465 20.7402 147.5 21.1123 147.57 21.458C147.641 21.8037 147.752 22.1084 147.904 22.3721C148.062 22.6299 148.268 22.832 148.52 22.9785C148.771 23.125 149.079 23.1982 149.442 23.1982C149.794 23.1982 150.096 23.125 150.348 22.9785C150.6 22.832 150.802 22.6299 150.954 22.3721C151.106 22.1084 151.218 21.8037 151.288 21.458C151.364 21.1123 151.402 20.7402 151.402 20.3418V20.1572C151.402 19.7705 151.364 19.4072 151.288 19.0674C151.218 18.7217 151.104 18.417 150.945 18.1533C150.793 17.8838 150.591 17.6729 150.339 17.5205C150.087 17.3682 149.782 17.292 149.425 17.292C149.067 17.292 148.763 17.3682 148.511 17.5205C148.265 17.6729 148.062 17.8838 147.904 18.1533C147.752 18.417 147.641 18.7217 147.57 19.0674C147.5 19.4072 147.465 19.7705 147.465 20.1572Z" fill="#F0F4F7"/>
<path d="M65.9463 27.2031V40H63.3184V27.2031H65.9463Z" fill="#F0F4F7"/>
<path d="M70.7363 32.5205V40H68.2051V30.4902H70.5781L70.7363 32.5205ZM70.3672 34.9111H69.6816C69.6816 34.208 69.7725 33.5752 69.9541 33.0127C70.1357 32.4443 70.3906 31.9609 70.7188 31.5625C71.0469 31.1582 71.4365 30.8506 71.8877 30.6396C72.3447 30.4229 72.8545 30.3145 73.417 30.3145C73.8623 30.3145 74.2695 30.3789 74.6387 30.5078C75.0078 30.6367 75.3242 30.8418 75.5879 31.123C75.8574 31.4043 76.0625 31.7764 76.2031 32.2393C76.3496 32.7021 76.4229 33.2676 76.4229 33.9355V40H73.874V33.9268C73.874 33.5049 73.8154 33.1768 73.6982 32.9424C73.5811 32.708 73.4082 32.5439 73.1797 32.4502C72.957 32.3506 72.6816 32.3008 72.3535 32.3008C72.0137 32.3008 71.7178 32.3682 71.4658 32.5029C71.2197 32.6377 71.0146 32.8252 70.8506 33.0654C70.6924 33.2998 70.5723 33.5752 70.4902 33.8916C70.4082 34.208 70.3672 34.5479 70.3672 34.9111Z" fill="#F0F4F7"/>
<path d="M83.9639 37.9258V26.5H86.5127V40H84.2188L83.9639 37.9258ZM77.9521 35.3594V35.1748C77.9521 34.4482 78.0342 33.7891 78.1982 33.1973C78.3623 32.5996 78.6025 32.0869 78.9189 31.6592C79.2354 31.2314 79.625 30.9004 80.0879 30.666C80.5508 30.4316 81.0781 30.3145 81.6699 30.3145C82.2266 30.3145 82.7129 30.4316 83.1289 30.666C83.5508 30.9004 83.9082 31.2344 84.2012 31.668C84.5 32.0957 84.7402 32.6025 84.9219 33.1885C85.1035 33.7686 85.2354 34.4043 85.3174 35.0957V35.5C85.2354 36.1621 85.1035 36.7773 84.9219 37.3457C84.7402 37.9141 84.5 38.4121 84.2012 38.8398C83.9082 39.2617 83.5508 39.5898 83.1289 39.8242C82.707 40.0586 82.2148 40.1758 81.6523 40.1758C81.0605 40.1758 80.5332 40.0557 80.0703 39.8154C79.6133 39.5752 79.2266 39.2383 78.9102 38.8047C78.5996 38.3711 78.3623 37.8613 78.1982 37.2754C78.0342 36.6895 77.9521 36.0508 77.9521 35.3594ZM80.4834 35.1748V35.3594C80.4834 35.752 80.5127 36.1182 80.5713 36.458C80.6357 36.7979 80.7383 37.0996 80.8789 37.3633C81.0254 37.6211 81.2129 37.8232 81.4414 37.9697C81.6758 38.1104 81.96 38.1807 82.2939 38.1807C82.7275 38.1807 83.085 38.084 83.3662 37.8906C83.6475 37.6914 83.8613 37.4189 84.0078 37.0732C84.1602 36.7275 84.248 36.3291 84.2715 35.8779V34.7266C84.2539 34.3574 84.2012 34.0264 84.1133 33.7334C84.0312 33.4346 83.9082 33.1797 83.7441 32.9688C83.5859 32.7578 83.3867 32.5938 83.1465 32.4766C82.9121 32.3594 82.6338 32.3008 82.3115 32.3008C81.9834 32.3008 81.7021 32.377 81.4678 32.5293C81.2334 32.6758 81.043 32.8779 80.8965 33.1357C80.7559 33.3936 80.6504 33.6982 80.5801 34.0498C80.5156 34.3955 80.4834 34.7705 80.4834 35.1748Z" fill="#F0F4F7"/>
<path d="M94.1152 37.7236V30.4902H96.6465V40H94.2646L94.1152 37.7236ZM94.3965 35.7725L95.1436 35.7549C95.1436 36.3877 95.0703 36.9766 94.9238 37.5215C94.7773 38.0605 94.5576 38.5293 94.2646 38.9277C93.9717 39.3203 93.6025 39.6279 93.1572 39.8506C92.7119 40.0674 92.1875 40.1758 91.584 40.1758C91.1211 40.1758 90.6934 40.1113 90.3008 39.9824C89.9141 39.8477 89.5801 39.6396 89.2988 39.3584C89.0234 39.0713 88.8066 38.7051 88.6484 38.2598C88.4961 37.8086 88.4199 37.2666 88.4199 36.6338V30.4902H90.9512V36.6514C90.9512 36.9326 90.9834 37.1699 91.0479 37.3633C91.1182 37.5566 91.2148 37.7148 91.3379 37.8379C91.4609 37.9609 91.6045 38.0488 91.7686 38.1016C91.9385 38.1543 92.126 38.1807 92.3311 38.1807C92.8525 38.1807 93.2627 38.0752 93.5615 37.8643C93.8662 37.6533 94.0801 37.3662 94.2031 37.0029C94.332 36.6338 94.3965 36.2236 94.3965 35.7725Z" fill="#F0F4F7"/>
<path d="M103.722 37.3721C103.722 37.1904 103.669 37.0264 103.563 36.8799C103.458 36.7334 103.262 36.5986 102.975 36.4756C102.693 36.3467 102.286 36.2295 101.753 36.124C101.272 36.0186 100.824 35.8867 100.408 35.7285C99.998 35.5645 99.6406 35.3682 99.3359 35.1396C99.0371 34.9111 98.8027 34.6416 98.6328 34.3311C98.4629 34.0146 98.3779 33.6543 98.3779 33.25C98.3779 32.8516 98.4629 32.4766 98.6328 32.125C98.8086 31.7734 99.0576 31.4629 99.3799 31.1934C99.708 30.918 100.106 30.7041 100.575 30.5518C101.05 30.3936 101.583 30.3145 102.175 30.3145C103.001 30.3145 103.71 30.4463 104.302 30.71C104.899 30.9736 105.356 31.3369 105.673 31.7998C105.995 32.2568 106.156 32.7783 106.156 33.3643H103.625C103.625 33.1182 103.572 32.8984 103.467 32.7051C103.367 32.5059 103.209 32.3506 102.992 32.2393C102.781 32.1221 102.506 32.0635 102.166 32.0635C101.885 32.0635 101.642 32.1133 101.437 32.2129C101.231 32.3066 101.073 32.4355 100.962 32.5996C100.856 32.7578 100.804 32.9336 100.804 33.127C100.804 33.2734 100.833 33.4053 100.892 33.5225C100.956 33.6338 101.059 33.7363 101.199 33.8301C101.34 33.9238 101.521 34.0117 101.744 34.0938C101.973 34.1699 102.254 34.2402 102.588 34.3047C103.273 34.4453 103.886 34.6299 104.425 34.8584C104.964 35.0811 105.392 35.3857 105.708 35.7725C106.024 36.1533 106.183 36.6543 106.183 37.2754C106.183 37.6973 106.089 38.084 105.901 38.4355C105.714 38.7871 105.444 39.0947 105.093 39.3584C104.741 39.6162 104.319 39.8184 103.827 39.9648C103.341 40.1055 102.793 40.1758 102.184 40.1758C101.299 40.1758 100.549 40.0176 99.9336 39.7012C99.3242 39.3848 98.8613 38.9834 98.5449 38.4971C98.2344 38.0049 98.0791 37.501 98.0791 36.9854H100.479C100.49 37.3311 100.578 37.6094 100.742 37.8203C100.912 38.0312 101.126 38.1836 101.384 38.2773C101.647 38.3711 101.932 38.418 102.236 38.418C102.564 38.418 102.837 38.374 103.054 38.2861C103.271 38.1924 103.435 38.0693 103.546 37.917C103.663 37.7588 103.722 37.5771 103.722 37.3721Z" fill="#F0F4F7"/>
<path d="M112.484 30.4902V32.2832H106.947V30.4902H112.484ZM108.318 28.1436H110.85V37.1348C110.85 37.4102 110.885 37.6211 110.955 37.7676C111.031 37.9141 111.143 38.0166 111.289 38.0752C111.436 38.1279 111.62 38.1543 111.843 38.1543C112.001 38.1543 112.142 38.1484 112.265 38.1367C112.394 38.1191 112.502 38.1016 112.59 38.084L112.599 39.9473C112.382 40.0176 112.147 40.0732 111.896 40.1143C111.644 40.1553 111.365 40.1758 111.061 40.1758C110.504 40.1758 110.018 40.085 109.602 39.9033C109.191 39.7158 108.875 39.417 108.652 39.0068C108.43 38.5967 108.318 38.0576 108.318 37.3896V28.1436Z" fill="#F0F4F7"/>
<path d="M116.457 32.5645V40H113.926V30.4902H116.308L116.457 32.5645ZM119.322 30.4287L119.278 32.7754C119.155 32.7578 119.006 32.7432 118.83 32.7314C118.66 32.7139 118.505 32.7051 118.364 32.7051C118.007 32.7051 117.696 32.752 117.433 32.8457C117.175 32.9336 116.958 33.0654 116.782 33.2412C116.612 33.417 116.483 33.6309 116.396 33.8828C116.313 34.1348 116.267 34.4219 116.255 34.7441L115.745 34.5859C115.745 33.9707 115.807 33.4053 115.93 32.8896C116.053 32.3682 116.231 31.9141 116.466 31.5273C116.706 31.1406 116.999 30.8418 117.345 30.6309C117.69 30.4199 118.086 30.3145 118.531 30.3145C118.672 30.3145 118.815 30.3262 118.962 30.3496C119.108 30.3672 119.229 30.3936 119.322 30.4287Z" fill="#F0F4F7"/>
<path d="M123.189 30.4902V40H120.649V30.4902H123.189ZM120.491 28.0117C120.491 27.6426 120.62 27.3379 120.878 27.0977C121.136 26.8574 121.481 26.7373 121.915 26.7373C122.343 26.7373 122.686 26.8574 122.943 27.0977C123.207 27.3379 123.339 27.6426 123.339 28.0117C123.339 28.3809 123.207 28.6855 122.943 28.9258C122.686 29.166 122.343 29.2861 121.915 29.2861C121.481 29.2861 121.136 29.166 120.878 28.9258C120.62 28.6855 120.491 28.3809 120.491 28.0117Z" fill="#F0F4F7"/>
<path d="M130.414 37.8555V33.6191C130.414 33.3145 130.364 33.0537 130.265 32.8369C130.165 32.6143 130.01 32.4414 129.799 32.3184C129.594 32.1953 129.327 32.1338 128.999 32.1338C128.718 32.1338 128.475 32.1836 128.27 32.2832C128.064 32.377 127.906 32.5146 127.795 32.6963C127.684 32.8721 127.628 33.0801 127.628 33.3203H125.097C125.097 32.916 125.19 32.5322 125.378 32.1689C125.565 31.8057 125.838 31.4863 126.195 31.2109C126.553 30.9297 126.978 30.71 127.47 30.5518C127.968 30.3936 128.524 30.3145 129.14 30.3145C129.878 30.3145 130.534 30.4375 131.108 30.6836C131.683 30.9297 132.134 31.2988 132.462 31.791C132.796 32.2832 132.963 32.8984 132.963 33.6367V37.7061C132.963 38.2275 132.995 38.6553 133.06 38.9893C133.124 39.3174 133.218 39.6045 133.341 39.8506V40H130.783C130.66 39.7422 130.566 39.4199 130.502 39.0332C130.443 38.6406 130.414 38.248 130.414 37.8555ZM130.748 34.208L130.766 35.6406H129.351C129.017 35.6406 128.727 35.6787 128.48 35.7549C128.234 35.8311 128.032 35.9395 127.874 36.0801C127.716 36.2148 127.599 36.373 127.522 36.5547C127.452 36.7363 127.417 36.9355 127.417 37.1523C127.417 37.3691 127.467 37.5654 127.566 37.7412C127.666 37.9111 127.81 38.0459 127.997 38.1455C128.185 38.2393 128.404 38.2861 128.656 38.2861C129.037 38.2861 129.368 38.21 129.649 38.0576C129.931 37.9053 130.147 37.7178 130.3 37.4951C130.458 37.2725 130.54 37.0615 130.546 36.8623L131.214 37.9346C131.12 38.1748 130.991 38.4238 130.827 38.6816C130.669 38.9395 130.467 39.1826 130.221 39.4111C129.975 39.6338 129.679 39.8184 129.333 39.9648C128.987 40.1055 128.577 40.1758 128.103 40.1758C127.499 40.1758 126.951 40.0557 126.459 39.8154C125.973 39.5693 125.586 39.2324 125.299 38.8047C125.018 38.3711 124.877 37.8789 124.877 37.3281C124.877 36.8301 124.971 36.3877 125.158 36.001C125.346 35.6143 125.621 35.2891 125.984 35.0254C126.354 34.7559 126.813 34.5537 127.364 34.4189C127.915 34.2783 128.554 34.208 129.28 34.208H130.748Z" fill="#F0F4F7"/>
<path d="M137.586 26.5V40H135.046V26.5H137.586Z" fill="#F0F4F7"/>
<path d="M24.4043 1V39H13.2823V1H24.4043ZM51 1V6H1V1H51Z" fill="#261466"/>
<path fill-rule="evenodd" clip-rule="evenodd" d="M1.06122 1.05275V5.16492H13.3135V38.9473H24.4082V5.16492H50.9388V1.05275H1.06122ZM25.4694 7.00299V40H12.2522V6.21767H0V0H52V7.00299H25.4694Z" fill="#261466"/>
<path d="M23.2208 8H26.9634L36.51 33.2727L46.0366 8H49.7992L37.951 39H35.029L23.2208 8ZM22 8H25.3023L25.8427 26.9066V39H22V8ZM47.6977 8H51V39H47.1574V26.9066L47.6977 8Z" fill="#DD251A"/>
<path fill-rule="evenodd" clip-rule="evenodd" d="M21 7V40H26.8426V26.8923L26.6395 19.7843L34.3398 40H38.6394L46.3601 19.7992L46.1574 26.8923V40H52V7H45.3448L36.509 30.4402L27.6546 7H21ZM22 8V39H25.8427V26.9066L25.4711 13.9077L35.029 39H37.951L47.5279 13.9427L47.1574 26.9066V39H51V8H46.0366L36.51 33.2727L26.9634 8H22Z" fill="#DD251A"/>
<path d="M57 9H58V40H57V9Z" fill="#A4B5C6"/>
</svg>
