<svg width="180" height="29" viewBox="0 0 180 29" fill="none" xmlns="http://www.w3.org/2000/svg">
<path d="M56.6715 0.19043C54.3156 9.73337 51.9895 19.2763 49.6335 28.8193H57.0293C57.0293 28.8193 59.3852 19.2465 60.5483 14.5645C60.7272 13.8488 60.9061 13.133 61.0851 12.4471C61.1149 12.3577 61.2044 12.298 61.264 12.2384C61.3236 12.298 61.4131 12.3577 61.4429 12.4173C61.4728 12.4471 61.4728 12.5068 61.5026 12.5664C63.3515 16.9204 65.2005 21.3042 67.0494 25.6582C67.3775 26.4335 67.7055 27.2089 68.0634 27.9544C68.2721 28.4316 68.6598 28.7596 69.2264 28.7894C69.4352 28.8193 69.6439 28.8193 69.8527 28.8193C71.7911 28.8193 73.6997 28.8193 75.6381 28.8193H75.9661C78.322 19.2763 80.6481 9.73337 83.004 0.19043H82.5865C80.4095 0.19043 78.2325 0.19043 76.0257 0.19043C75.6679 0.19043 75.5486 0.279895 75.4591 0.637755C74.1768 5.97584 72.8646 11.3139 71.5525 16.652C71.5227 16.7415 71.463 16.8309 71.4034 16.9204C71.3437 16.8309 71.2245 16.7713 71.1946 16.6818C68.9282 11.4929 66.6617 6.27406 64.4549 1.08508C64.1865 0.429003 63.769 0.19043 63.1428 0.19043C62.9638 0.19043 62.7849 0.19043 62.606 0.19043C60.757 0.19043 58.9081 0.19043 57.0591 0.19043H56.6715Z" fill="#0054A6"/>
<path d="M103.402 28.8193C105.758 19.2763 108.084 9.76319 110.44 0.19043H110.142C108.233 0.19043 106.325 0.19043 104.416 0.19043C104.148 0.19043 104.088 0.279897 104.028 0.51847C102.716 5.9162 101.374 11.2841 100.062 16.6818C99.8831 17.3379 99.734 18.0238 99.5551 18.6799C99.5253 18.7693 99.4656 18.829 99.4358 18.9185C99.3762 18.8588 99.3165 18.7693 99.2271 18.7097C99.2271 18.7097 99.2271 18.6799 99.1972 18.6501C96.6624 12.805 94.1276 6.93013 91.6225 1.08508C91.3541 0.429003 90.9366 0.190432 90.2806 0.220253C90.1613 0.220253 90.0122 0.220253 89.8929 0.220253C88.372 0.220253 86.8511 0.220253 85.3302 0.220253C84.9723 0.220253 84.853 0.309718 84.7635 0.667579C82.6164 9.4948 80.4394 18.322 78.2624 27.1492C78.1133 27.7159 77.994 28.2825 77.8449 28.8491C79.9026 28.8491 81.9305 28.8491 83.9584 28.8491C84.018 28.8491 84.1373 28.7298 84.1671 28.6702C84.2566 28.3421 84.346 27.9843 84.4355 27.6562C85.8073 22.0199 87.1791 16.3538 88.5807 10.7175C88.6105 10.628 88.7 10.5386 88.7597 10.4193C88.8491 10.5087 88.9386 10.5684 88.9982 10.6877C89.8631 12.6261 90.6981 14.5645 91.5331 16.5327C93.1434 20.2604 94.7836 23.9583 96.3642 27.686C96.722 28.5509 97.2588 28.8789 98.1833 28.8789C99.078 28.8789 99.913 28.8789 100.778 28.8789H103.402V28.8193Z" fill="#0054A6"/>
<path d="M114.705 11.9104C114.705 11.8209 114.705 11.7911 114.705 11.7613C115.271 9.55448 115.838 7.31785 116.375 5.11104C116.434 4.81283 116.553 4.72336 116.852 4.72336C121.653 4.72336 126.454 4.72336 131.226 4.72336C131.464 4.72336 131.584 4.66372 131.643 4.42515C131.822 3.59014 132.031 2.75513 132.24 1.94995C132.389 1.35351 132.508 0.757078 132.657 0.160645H112.319C109.963 9.73341 107.637 19.2764 105.281 28.8193H125.589C125.977 27.2387 126.365 25.6284 126.782 23.9882H111.752C111.782 23.8987 111.782 23.8391 111.782 23.7794C112.349 21.513 112.885 19.2465 113.452 16.9503C113.512 16.6819 113.631 16.5924 113.899 16.5924C118.074 16.5924 122.22 16.5924 126.395 16.5924H126.782C127.17 15.0118 127.528 13.4611 127.916 11.9104H114.705Z" fill="#0054A6"/>
<path d="M155.322 0.309937C155.113 1.17477 154.904 2.03959 154.666 2.8746C154.546 3.35175 154.397 3.8289 154.308 4.30604C154.248 4.57444 154.129 4.6639 153.86 4.6639C150.252 4.6639 146.673 4.6639 143.065 4.6639C142.2 4.6639 141.365 4.72355 140.53 4.99194C139.039 5.49891 138.204 6.60231 137.816 8.0934C137.041 11.1054 136.325 14.1174 135.58 17.0996C135.281 18.2924 134.953 19.4853 134.745 20.708C134.655 21.2149 134.655 21.8114 134.745 22.3183C134.953 23.4814 135.818 24.0182 136.892 24.1971C137.369 24.2866 137.846 24.3164 138.323 24.3164C141.872 24.3164 145.451 24.3164 148.999 24.3164H149.447C149.119 25.7478 148.761 27.1793 148.433 28.5809C148.075 28.6107 147.747 28.6405 147.389 28.6704C143.035 28.7897 138.681 28.9089 134.327 28.9984C132.955 29.0282 131.643 28.6406 130.57 27.7161C129.615 26.9109 129.108 25.8373 128.9 24.6146C128.661 23.0937 128.929 21.6324 129.287 20.1712C130.301 16.026 131.285 11.9106 132.299 7.76536C132.806 5.64802 133.79 3.79908 135.401 2.33781C136.892 0.995837 138.651 0.160828 140.649 0.0713628C142.856 -0.047924 145.063 0.0117176 147.3 0.0415393C149.656 0.071361 152.011 0.16083 154.397 0.250295C154.666 0.250295 154.994 0.280116 155.322 0.309937Z" fill="#0054A6"/>
<path d="M179.895 4.75302C179.746 3.44086 179.239 2.30764 178.165 1.47263C177.032 0.57798 175.69 0.22012 174.288 0.22012C171.038 0.190298 167.787 0.190298 164.537 0.22012C163.224 0.22012 161.972 0.518336 160.779 1.02531C157.857 2.30764 156.127 4.60391 155.381 7.6159C154.904 9.49467 152.697 18.6201 152.25 20.4094C151.922 21.7514 151.624 23.0635 151.803 24.4353C151.982 25.8071 152.578 26.9404 153.741 27.7455C154.815 28.4911 156.037 28.7595 157.32 28.7893C158.99 28.8191 160.66 28.7893 162.3 28.7893C163.91 28.7893 165.521 28.8191 167.131 28.7893C168.622 28.7595 170.024 28.4314 171.336 27.7455C173.99 26.3737 175.6 24.1669 176.316 21.3041C176.853 19.1867 179.03 10.27 179.388 8.80877C179.716 7.49661 180.044 6.15464 179.895 4.75302ZM171.157 20.4392C170.859 21.5724 170.352 22.5864 169.368 23.2723C168.533 23.8389 167.578 24.0178 166.594 24.0477C165.551 24.0775 160.988 24.0178 159.765 23.988C159.437 23.988 159.079 23.8985 158.751 23.7793C157.678 23.3916 157.171 22.4671 157.409 21.1848C157.648 19.9024 157.946 18.6201 158.274 17.3676C158.453 16.5922 160.093 9.88235 160.511 8.18251C160.749 7.25804 161.137 6.36339 161.912 5.73713C162.598 5.20034 163.433 4.93195 164.268 4.93195C166.863 4.90213 169.457 4.90213 172.052 4.93195C172.499 4.93195 172.946 5.08106 173.364 5.23017C174.02 5.46874 174.318 6.00553 174.378 6.69143C174.437 7.58608 174.199 8.42108 173.99 9.25609C173.632 10.5682 171.634 18.6201 171.157 20.4392Z" fill="#0054A6"/>
<path d="M31.2336 0.19043H54.4051L52.5263 7.76514H38.9276L38.1224 10.9561H49.2459L47.5759 17.8747H36.4524L35.677 20.827H49.2161L47.3075 28.8193H24.1957L31.2336 0.19043Z" fill="#0054A6"/>
<path d="M18.4997 9.88281L13.9072 28.8196H4.42389L7.58499 15.4893C9.16554 9.52496 12.2968 9.91264 17.9331 9.91264H18.4997V9.88281Z" fill="#0054A6"/>
<path d="M26.9989 7.76518H0.994385L2.84333 0.160645H28.9075L26.9989 7.76518Z" fill="#0054A6"/>
<path d="M26.9989 7.76518H0.994385L2.84333 0.160645H28.9075L26.9989 7.76518Z" fill="#0054A6"/>
</svg>
