<svg width="139" height="30" viewBox="0 0 139 30" fill="none" xmlns="http://www.w3.org/2000/svg">
<path d="M13.0905 0.625671V29.6359H9.30478V0.625671H13.0905ZM22.4152 0.625671V3.77376H0V0.625671H22.4152Z" fill="#261466"/>
<path d="M15.2607 6.20422H18.27L25.9464 25.3065L33.6066 6.20422H36.6321L27.1051 29.6355H24.7555L15.2607 6.20422ZM14.279 6.20422H16.9343L17.3688 20.4947V29.6355H14.279V6.20422ZM34.9423 6.20422H37.5976V29.6355H34.5078V20.4947L34.9423 6.20422Z" fill="#DD251A"/>
<path d="M49.459 1.73804L45.0265 13.9411H43.2149L48.3187 0.551758H49.4865L49.459 1.73804ZM53.1741 13.9411L48.7325 1.73804L48.7049 0.551758H49.8728L54.9949 13.9411H53.1741ZM52.9442 8.98445V10.4374H45.4219V8.98445H52.9442Z" fill="#112233"/>
<path d="M62.508 11.6421V3.99105H64.2185V13.9411H62.5908L62.508 11.6421ZM62.8299 9.54541L63.538 9.52701C63.538 10.1891 63.4675 10.8022 63.3265 11.3662C63.1916 11.9241 62.9709 12.4084 62.6644 12.8192C62.3578 13.2299 61.9563 13.5518 61.4597 13.7847C60.9631 14.0116 60.3592 14.125 59.6481 14.125C59.1638 14.125 58.7193 14.0545 58.3147 13.9135C57.9162 13.7725 57.5729 13.5548 57.2847 13.2606C56.9966 12.9663 56.7728 12.5831 56.6134 12.1111C56.4602 11.639 56.3835 11.0719 56.3835 10.4098V3.99105H58.0848V10.4282C58.0848 10.8758 58.1338 11.2467 58.2319 11.5409C58.3361 11.8291 58.4741 12.059 58.6457 12.2306C58.8235 12.3962 59.0197 12.5126 59.2343 12.5801C59.455 12.6475 59.6818 12.6812 59.9148 12.6812C60.6382 12.6812 61.2114 12.5433 61.6344 12.2674C62.0574 11.9854 62.3609 11.6084 62.5448 11.1363C62.7349 10.6581 62.8299 10.1278 62.8299 9.54541Z" fill="#112233"/>
<path d="M70.9775 3.99105V5.29687H65.5979V3.99105H70.9775ZM67.4187 1.57251H69.1199V11.4766C69.1199 11.8137 69.172 12.0682 69.2763 12.2398C69.3805 12.4115 69.5154 12.5249 69.6809 12.5801C69.8464 12.6352 70.0242 12.6628 70.2142 12.6628C70.3552 12.6628 70.5024 12.6506 70.6557 12.6261C70.815 12.5954 70.9346 12.5709 71.0143 12.5525L71.0235 13.9411C70.8886 13.984 70.7108 14.0238 70.4901 14.0606C70.2756 14.1035 70.015 14.125 69.7085 14.125C69.2916 14.125 68.9084 14.0422 68.559 13.8767C68.2095 13.7112 67.9306 13.4353 67.7221 13.0491C67.5198 12.6567 67.4187 12.1295 67.4187 11.4674V1.57251Z" fill="#112233"/>
<path d="M72.3385 9.07641V8.86491C72.3385 8.14762 72.4427 7.48245 72.6512 6.86938C72.8596 6.25019 73.16 5.71376 73.5524 5.26009C73.9447 4.80029 74.4199 4.44471 74.9778 4.19336C75.5356 3.93587 76.161 3.80713 76.8537 3.80713C77.5526 3.80713 78.181 3.93587 78.7389 4.19336C79.3029 4.44471 79.7811 4.80029 80.1735 5.26009C80.572 5.71376 80.8754 6.25019 81.0839 6.86938C81.2923 7.48245 81.3965 8.14762 81.3965 8.86491V9.07641C81.3965 9.7937 81.2923 10.4589 81.0839 11.0719C80.8754 11.685 80.572 12.2214 80.1735 12.6812C79.7811 13.1349 79.306 13.4905 78.7481 13.748C78.1963 13.9993 77.571 14.125 76.8721 14.125C76.1732 14.125 75.5448 13.9993 74.9869 13.748C74.4291 13.4905 73.9509 13.1349 73.5524 12.6812C73.16 12.2214 72.8596 11.685 72.6512 11.0719C72.4427 10.4589 72.3385 9.7937 72.3385 9.07641ZM74.0398 8.86491V9.07641C74.0398 9.57299 74.098 10.042 74.2145 10.4834C74.331 10.9187 74.5057 11.3049 74.7387 11.6421C74.9778 11.9793 75.2751 12.246 75.6307 12.4421C75.9862 12.6322 76.4001 12.7272 76.8721 12.7272C77.3381 12.7272 77.7457 12.6322 78.0952 12.4421C78.4508 12.246 78.745 11.9793 78.978 11.6421C79.211 11.3049 79.3857 10.9187 79.5022 10.4834C79.6248 10.042 79.6861 9.57299 79.6861 9.07641V8.86491C79.6861 8.37445 79.6248 7.91159 79.5022 7.47632C79.3857 7.03491 79.2079 6.64561 78.9688 6.30843C78.7358 5.96511 78.4416 5.69536 78.086 5.49918C77.7365 5.303 77.3258 5.20491 76.8537 5.20491C76.3878 5.20491 75.977 5.303 75.6215 5.49918C75.272 5.69536 74.9778 5.96511 74.7387 6.30843C74.5057 6.64561 74.331 7.03491 74.2145 7.47632C74.098 7.91159 74.0398 8.37445 74.0398 8.86491Z" fill="#112233"/>
<path d="M85.2221 5.96818V13.9411H83.5116V3.99105H85.1301L85.2221 5.96818ZM84.8726 8.58903L84.0818 8.56144C84.0879 7.88094 84.1768 7.25255 84.3484 6.67627C84.5201 6.09386 84.7745 5.58808 85.1117 5.15893C85.4489 4.72979 85.8688 4.39873 86.3715 4.16577C86.8743 3.92667 87.4567 3.80713 88.1188 3.80713C88.5847 3.80713 89.0139 3.87456 89.4062 4.00944C89.7986 4.13818 90.1388 4.34356 90.427 4.62557C90.7151 4.90758 90.9389 5.26929 91.0983 5.71069C91.2577 6.1521 91.3374 6.68546 91.3374 7.31079V13.9411H89.6361V7.39355C89.6361 6.87245 89.5472 6.45556 89.3694 6.1429C89.1978 5.83024 88.9525 5.6034 88.6338 5.4624C88.315 5.31526 87.941 5.2417 87.5118 5.2417C87.0091 5.2417 86.5892 5.33059 86.252 5.50838C85.9148 5.68617 85.6451 5.93139 85.4428 6.24406C85.2404 6.55672 85.0933 6.91536 85.0014 7.31998C84.9155 7.71848 84.8726 8.14149 84.8726 8.58903ZM91.319 7.65104L90.1787 8.00049C90.1848 7.45486 90.2737 6.93069 90.4454 6.42798C90.6231 5.92526 90.8776 5.47773 91.2086 5.08537C91.5458 4.69301 91.9596 4.38341 92.4501 4.15657C92.9405 3.92361 93.5015 3.80713 94.1329 3.80713C94.6663 3.80713 95.1384 3.87763 95.5491 4.01863C95.966 4.15964 96.3154 4.37728 96.5975 4.67155C96.8856 4.95969 97.1032 5.33059 97.2504 5.78426C97.3975 6.23793 97.4711 6.77742 97.4711 7.40275V13.9411H95.7606V7.38436C95.7606 6.82647 95.6717 6.39426 95.4939 6.08773C95.3223 5.77506 95.0771 5.55743 94.7583 5.43481C94.4456 5.30607 94.0716 5.2417 93.6364 5.2417C93.2624 5.2417 92.9313 5.30607 92.6432 5.43481C92.3551 5.56356 92.1129 5.74134 91.9167 5.96818C91.7205 6.18888 91.5703 6.4433 91.4661 6.73144C91.368 7.01958 91.319 7.32611 91.319 7.65104Z" fill="#112233"/>
<path d="M105.913 12.2398V7.11767C105.913 6.72531 105.833 6.38506 105.674 6.09692C105.521 5.80265 105.288 5.57582 104.975 5.41642C104.662 5.25702 104.276 5.17733 103.816 5.17733C103.387 5.17733 103.01 5.25089 102.685 5.39803C102.366 5.54516 102.115 5.73828 101.931 5.97737C101.753 6.21647 101.664 6.47396 101.664 6.74983H99.9632C99.9632 6.39426 100.055 6.04175 100.239 5.6923C100.423 5.34285 100.687 5.02712 101.03 4.74512C101.379 4.45698 101.796 4.23014 102.281 4.06461C102.771 3.89296 103.317 3.80713 103.917 3.80713C104.641 3.80713 105.278 3.92974 105.83 4.17497C106.388 4.42019 106.823 4.7911 107.136 5.28768C107.455 5.77813 107.614 6.39426 107.614 7.13607V11.7708C107.614 12.1019 107.642 12.4544 107.697 12.8284C107.758 13.2023 107.847 13.5242 107.964 13.7939V13.9411H106.189C106.103 13.7449 106.036 13.4843 105.987 13.1594C105.937 12.8284 105.913 12.5218 105.913 12.2398ZM106.207 7.90853L106.226 9.104H104.506C104.022 9.104 103.589 9.14385 103.209 9.22355C102.829 9.29712 102.51 9.41053 102.253 9.5638C101.995 9.71706 101.799 9.91018 101.664 10.1431C101.53 10.37 101.462 10.6367 101.462 10.9432C101.462 11.2559 101.533 11.5409 101.674 11.7984C101.815 12.0559 102.026 12.2613 102.308 12.4145C102.596 12.5617 102.949 12.6352 103.366 12.6352C103.887 12.6352 104.347 12.5249 104.745 12.3042C105.144 12.0835 105.459 11.8137 105.692 11.495C105.931 11.1762 106.06 10.8666 106.078 10.5662L106.805 11.3846C106.762 11.6421 106.646 11.9272 106.456 12.2398C106.265 12.5525 106.011 12.8529 105.692 13.141C105.38 13.423 105.006 13.6591 104.57 13.8491C104.141 14.033 103.657 14.125 103.117 14.125C102.443 14.125 101.851 13.9932 101.343 13.7296C100.84 13.466 100.447 13.1134 100.165 12.672C99.8896 12.2245 99.7517 11.7248 99.7517 11.1731C99.7517 10.6397 99.8559 10.1707 100.064 9.76611C100.273 9.35536 100.573 9.01511 100.966 8.74536C101.358 8.46948 101.83 8.26104 102.382 8.12003C102.933 7.97903 103.55 7.90853 104.23 7.90853H106.207Z" fill="#112233"/>
<path d="M114.272 12.7272C114.677 12.7272 115.051 12.6444 115.394 12.4789C115.737 12.3134 116.019 12.0866 116.24 11.7984C116.461 11.5041 116.586 11.17 116.617 10.7961H118.236C118.205 11.3846 118.006 11.9333 117.638 12.4421C117.276 12.9448 116.801 13.3525 116.212 13.6652C115.624 13.9717 114.977 14.125 114.272 14.125C113.524 14.125 112.871 13.9932 112.313 13.7296C111.762 13.466 111.302 13.1042 110.934 12.6444C110.572 12.1846 110.299 11.6574 110.116 11.0627C109.938 10.4619 109.849 9.82742 109.849 9.15918V8.77295C109.849 8.10471 109.938 7.47325 110.116 6.87858C110.299 6.27778 110.572 5.74748 110.934 5.28768C111.302 4.82788 111.762 4.46617 112.313 4.20255C112.871 3.93894 113.524 3.80713 114.272 3.80713C115.051 3.80713 115.731 3.96652 116.314 4.28532C116.896 4.59798 117.353 5.02712 117.684 5.57275C118.021 6.11225 118.205 6.72531 118.236 7.41194H116.617C116.586 7.00119 116.47 6.63029 116.268 6.29923C116.071 5.96818 115.802 5.70456 115.458 5.50838C115.121 5.30607 114.726 5.20491 114.272 5.20491C113.751 5.20491 113.313 5.30913 112.957 5.51758C112.608 5.71989 112.329 5.99577 112.12 6.34521C111.918 6.68853 111.771 7.07169 111.679 7.49471C111.593 7.91159 111.55 8.33767 111.55 8.77295V9.15918C111.55 9.59445 111.593 10.0236 111.679 10.4466C111.765 10.8696 111.909 11.2528 112.111 11.5961C112.319 11.9394 112.598 12.2153 112.948 12.4237C113.303 12.6261 113.745 12.7272 114.272 12.7272ZM113.334 14.033H114.557L114.447 14.5204C114.802 14.5817 115.124 14.7289 115.412 14.9618C115.707 15.1948 115.854 15.578 115.854 16.1113C115.854 16.3995 115.792 16.66 115.67 16.893C115.553 17.1321 115.379 17.3344 115.146 17.4999C114.913 17.6716 114.622 17.8034 114.272 17.8953C113.929 17.9873 113.527 18.0333 113.067 18.0333L113.003 17.0493C113.285 17.0493 113.539 17.0187 113.766 16.9573C113.999 16.896 114.183 16.798 114.318 16.6631C114.459 16.5282 114.53 16.3535 114.53 16.1389C114.53 15.9366 114.477 15.7772 114.373 15.6607C114.269 15.5442 114.107 15.4553 113.886 15.394C113.671 15.3389 113.392 15.299 113.049 15.2745L113.334 14.033Z" fill="#112233"/>
<path d="M126.015 12.2398V7.11767C126.015 6.72531 125.936 6.38506 125.776 6.09692C125.623 5.80265 125.39 5.57582 125.077 5.41642C124.765 5.25702 124.378 5.17733 123.919 5.17733C123.49 5.17733 123.112 5.25089 122.788 5.39803C122.469 5.54516 122.217 5.73828 122.033 5.97737C121.856 6.21647 121.767 6.47396 121.767 6.74983H120.066C120.066 6.39426 120.158 6.04175 120.341 5.6923C120.525 5.34285 120.789 5.02712 121.132 4.74512C121.482 4.45698 121.899 4.23014 122.383 4.06461C122.873 3.89296 123.419 3.80713 124.02 3.80713C124.743 3.80713 125.381 3.92974 125.933 4.17497C126.49 4.42019 126.926 4.7911 127.238 5.28768C127.557 5.77813 127.717 6.39426 127.717 7.13607V11.7708C127.717 12.1019 127.744 12.4544 127.799 12.8284C127.861 13.2023 127.95 13.5242 128.066 13.7939V13.9411H126.291C126.205 13.7449 126.138 13.4843 126.089 13.1594C126.04 12.8284 126.015 12.5218 126.015 12.2398ZM126.31 7.90853L126.328 9.104H124.608C124.124 9.104 123.692 9.14385 123.312 9.22355C122.932 9.29712 122.613 9.41053 122.355 9.5638C122.098 9.71706 121.902 9.91018 121.767 10.1431C121.632 10.37 121.564 10.6367 121.564 10.9432C121.564 11.2559 121.635 11.5409 121.776 11.7984C121.917 12.0559 122.129 12.2613 122.411 12.4145C122.699 12.5617 123.051 12.6352 123.468 12.6352C123.989 12.6352 124.449 12.5249 124.847 12.3042C125.246 12.0835 125.562 11.8137 125.795 11.495C126.034 11.1762 126.162 10.8666 126.181 10.5662L126.907 11.3846C126.864 11.6421 126.748 11.9272 126.558 12.2398C126.368 12.5525 126.113 12.8529 125.795 13.141C125.482 13.423 125.108 13.6591 124.673 13.8491C124.244 14.033 123.759 14.125 123.22 14.125C122.545 14.125 121.954 13.9932 121.445 13.7296C120.942 13.466 120.55 13.1134 120.268 12.672C119.992 12.2245 119.854 11.7248 119.854 11.1731C119.854 10.6397 119.958 10.1707 120.167 9.76611C120.375 9.35536 120.676 9.01511 121.068 8.74536C121.46 8.46948 121.932 8.26104 122.484 8.12003C123.036 7.97903 123.652 7.90853 124.332 7.90853H126.31ZM126.319 0L127.468 0.101156C127.468 0.548692 127.379 0.941053 127.202 1.27824C127.024 1.61542 126.785 1.87598 126.484 2.0599C126.19 2.24381 125.856 2.33577 125.482 2.33577C125.169 2.33577 124.912 2.29286 124.71 2.20703C124.507 2.11507 124.326 2.01392 124.167 1.90356C124.008 1.78708 123.839 1.68593 123.661 1.6001C123.49 1.50814 123.275 1.46216 123.017 1.46216C122.76 1.46216 122.542 1.56025 122.365 1.75643C122.193 1.95261 122.107 2.19477 122.107 2.48291L120.958 2.42773C120.958 1.9802 121.043 1.58784 121.215 1.25065C121.393 0.907335 121.632 0.640652 121.932 0.450602C122.233 0.254422 122.567 0.156331 122.935 0.156331C123.198 0.156331 123.428 0.202311 123.624 0.294271C123.827 0.3801 124.017 0.481255 124.195 0.597737C124.372 0.708089 124.556 0.809244 124.746 0.901204C124.936 0.987033 125.154 1.02995 125.399 1.02995C125.657 1.02995 125.874 0.931857 126.052 0.735677C126.23 0.533366 126.319 0.28814 126.319 0Z" fill="#112233"/>
<path d="M129.942 9.07641V8.86491C129.942 8.14762 130.046 7.48245 130.255 6.86938C130.463 6.25019 130.764 5.71376 131.156 5.26009C131.548 4.80029 132.023 4.44471 132.581 4.19336C133.139 3.93587 133.764 3.80713 134.457 3.80713C135.156 3.80713 135.785 3.93587 136.342 4.19336C136.906 4.44471 137.385 4.80029 137.777 5.26009C138.175 5.71376 138.479 6.25019 138.687 6.86938C138.896 7.48245 139 8.14762 139 8.86491V9.07641C139 9.7937 138.896 10.4589 138.687 11.0719C138.479 11.685 138.175 12.2214 137.777 12.6812C137.385 13.1349 136.909 13.4905 136.352 13.748C135.8 13.9993 135.175 14.125 134.476 14.125C133.777 14.125 133.148 13.9993 132.59 13.748C132.033 13.4905 131.554 13.1349 131.156 12.6812C130.764 12.2214 130.463 11.685 130.255 11.0719C130.046 10.4589 129.942 9.7937 129.942 9.07641ZM131.643 8.86491V9.07641C131.643 9.57299 131.701 10.042 131.818 10.4834C131.934 10.9187 132.109 11.3049 132.342 11.6421C132.581 11.9793 132.879 12.246 133.234 12.4421C133.59 12.6322 134.004 12.7272 134.476 12.7272C134.942 12.7272 135.349 12.6322 135.699 12.4421C136.054 12.246 136.349 11.9793 136.581 11.6421C136.814 11.3049 136.989 10.9187 137.106 10.4834C137.228 10.042 137.29 9.57299 137.29 9.07641V8.86491C137.29 8.37445 137.228 7.91159 137.106 7.47632C136.989 7.03491 136.811 6.64561 136.572 6.30843C136.339 5.96511 136.045 5.69536 135.689 5.49918C135.34 5.303 134.929 5.20491 134.457 5.20491C133.991 5.20491 133.581 5.303 133.225 5.49918C132.876 5.69536 132.581 5.96511 132.342 6.30843C132.109 6.64561 131.934 7.03491 131.818 7.47632C131.701 7.91159 131.643 8.37445 131.643 8.86491Z" fill="#112233"/>
<path d="M46.4059 16.2463V29.6356H44.631V16.2463H46.4059Z" fill="#112233"/>
<path d="M51.0774 21.8099V29.6356H49.3762V19.6856H50.9855L51.0774 21.8099ZM50.6728 24.2836L49.9647 24.256C49.9708 23.5755 50.072 22.9471 50.2682 22.3708C50.4643 21.7884 50.7402 21.2826 51.0958 20.8535C51.4514 20.4243 51.8744 20.0933 52.3648 19.8603C52.8614 19.6212 53.4101 19.5017 54.0109 19.5017C54.5014 19.5017 54.9428 19.5691 55.3351 19.704C55.7275 19.8327 56.0616 20.0412 56.3375 20.3293C56.6195 20.6174 56.8341 20.9914 56.9812 21.4512C57.1284 21.9049 57.2019 22.4597 57.2019 23.1157V29.6356H55.4915V23.0973C55.4915 22.5762 55.4148 22.1593 55.2616 21.8466C55.1083 21.5278 54.8845 21.2979 54.5903 21.1569C54.296 21.0098 53.9343 20.9362 53.5051 20.9362C53.0821 20.9362 52.6959 21.0251 52.3465 21.2029C52.0031 21.3807 51.7058 21.6259 51.4544 21.9386C51.2092 22.2513 51.0161 22.6099 50.8751 23.0145C50.7402 23.413 50.6728 23.836 50.6728 24.2836Z" fill="#112233"/>
<path d="M66.0576 27.7045V15.5106H67.7681V29.6356H66.2048L66.0576 27.7045ZM59.363 24.771V24.5778C59.363 23.8176 59.4549 23.1279 59.6388 22.5087C59.8289 21.8834 60.0956 21.347 60.4389 20.8995C60.7883 20.4519 61.2022 20.1086 61.6804 19.8695C62.1647 19.6243 62.7042 19.5017 63.2988 19.5017C63.9242 19.5017 64.4698 19.612 64.9357 19.8327C65.4078 20.0473 65.8063 20.363 66.1312 20.7799C66.4623 21.1907 66.7228 21.6872 66.9129 22.2697C67.1029 22.8521 67.2347 23.5111 67.3083 24.2468V25.0928C67.2408 25.8224 67.109 26.4783 66.9129 27.0607C66.7228 27.6432 66.4623 28.1397 66.1312 28.5505C65.8063 28.9612 65.4078 29.277 64.9357 29.4977C64.4637 29.7122 63.9119 29.8195 63.2804 29.8195C62.698 29.8195 62.1647 29.6939 61.6804 29.4425C61.2022 29.1911 60.7883 28.8386 60.4389 28.385C60.0956 27.9313 59.8289 27.3979 59.6388 26.7849C59.4549 26.1657 59.363 25.4944 59.363 24.771ZM61.0734 24.5778V24.771C61.0734 25.2675 61.1225 25.7335 61.2206 26.1687C61.3248 26.604 61.4842 26.9872 61.6987 27.3182C61.9133 27.6493 62.1861 27.9098 62.5172 28.0999C62.8482 28.2838 63.2437 28.3758 63.7035 28.3758C64.2675 28.3758 64.7303 28.2562 65.0921 28.0171C65.4599 27.778 65.7542 27.4623 65.9749 27.0699C66.1956 26.6776 66.3672 26.2515 66.4898 25.7917V23.5755C66.4163 23.2383 66.309 22.9134 66.168 22.6007C66.0331 22.2819 65.8553 21.9999 65.6346 21.7547C65.42 21.5033 65.1534 21.3041 64.8346 21.1569C64.5219 21.0098 64.151 20.9362 63.7219 20.9362C63.2559 20.9362 62.8544 21.0343 62.5172 21.2305C62.1861 21.4206 61.9133 21.6842 61.6987 22.0214C61.4842 22.3524 61.3248 22.7386 61.2206 23.1801C61.1225 23.6153 61.0734 24.0813 61.0734 24.5778Z" fill="#112233"/>
<path d="M76.5042 27.3366V19.6856H78.2147V29.6356H76.587L76.5042 27.3366ZM76.8261 25.2399L77.5342 25.2216C77.5342 25.8837 77.4637 26.4967 77.3227 27.0607C77.1878 27.6186 76.9671 28.103 76.6606 28.5137C76.354 28.9245 75.9525 29.2463 75.4559 29.4793C74.9593 29.7061 74.3554 29.8195 73.6443 29.8195C73.16 29.8195 72.7155 29.749 72.3109 29.608C71.9124 29.467 71.5691 29.2494 71.2809 28.9551C70.9928 28.6608 70.769 28.2777 70.6096 27.8056C70.4564 27.3336 70.3797 26.7665 70.3797 26.1044V19.6856H72.081V26.1228C72.081 26.5703 72.13 26.9412 72.2281 27.2355C72.3323 27.5236 72.4703 27.7535 72.6419 27.9252C72.8197 28.0907 73.0159 28.2072 73.2305 28.2746C73.4512 28.342 73.678 28.3758 73.911 28.3758C74.6344 28.3758 75.2076 28.2378 75.6306 27.9619C76.0536 27.6799 76.3571 27.3029 76.541 26.8308C76.7311 26.3527 76.8261 25.8224 76.8261 25.2399Z" fill="#112233"/>
<path d="M86.6014 26.9964C86.6014 26.7511 86.5462 26.5243 86.4359 26.3159C86.3317 26.1013 86.114 25.9082 85.783 25.7365C85.458 25.5587 84.9676 25.4055 84.3116 25.2767C83.7599 25.1602 83.2602 25.0223 82.8127 24.8629C82.3713 24.7035 81.9942 24.5104 81.6816 24.2836C81.375 24.0567 81.139 23.79 80.9735 23.4835C80.8079 23.177 80.7252 22.8183 80.7252 22.4076C80.7252 22.0152 80.811 21.6443 80.9827 21.2949C81.1605 20.9454 81.4088 20.6358 81.7275 20.3661C82.0525 20.0963 82.4418 19.8848 82.8954 19.7316C83.3491 19.5783 83.8549 19.5017 84.4128 19.5017C85.2097 19.5017 85.8902 19.6427 86.4543 19.9247C87.0183 20.2067 87.4505 20.5837 87.7509 21.0558C88.0513 21.5217 88.2015 22.0398 88.2015 22.6099H86.5002C86.5002 22.334 86.4175 22.0673 86.252 21.8099C86.0926 21.5462 85.8565 21.3286 85.5439 21.1569C85.2373 20.9853 84.8603 20.8995 84.4128 20.8995C83.9407 20.8995 83.5575 20.973 83.2633 21.1202C82.9751 21.2612 82.7636 21.442 82.6287 21.6627C82.5 21.8834 82.4356 22.1164 82.4356 22.3616C82.4356 22.5455 82.4663 22.7111 82.5276 22.8582C82.595 22.9992 82.7115 23.131 82.877 23.2536C83.0426 23.3701 83.2755 23.4805 83.5759 23.5847C83.8763 23.6889 84.2595 23.7931 84.7254 23.8973C85.5408 24.0813 86.2121 24.302 86.7393 24.5594C87.2666 24.8169 87.6589 25.1327 87.9164 25.5066C88.1739 25.8806 88.3027 26.3343 88.3027 26.8676C88.3027 27.3029 88.2107 27.7014 88.0268 28.0631C87.849 28.4248 87.5884 28.7375 87.2451 29.0011C86.9079 29.2586 86.5033 29.4609 86.0313 29.608C85.5653 29.749 85.0412 29.8195 84.4587 29.8195C83.5821 29.8195 82.8403 29.6632 82.2333 29.3505C81.6264 29.0379 81.1666 28.6333 80.8539 28.1367C80.5413 27.6401 80.3849 27.1159 80.3849 26.5642H82.0954C82.1199 27.0301 82.2548 27.401 82.5 27.6769C82.7452 27.9466 83.0456 28.1397 83.4012 28.2562C83.7568 28.3666 84.1093 28.4217 84.4587 28.4217C84.9247 28.4217 85.314 28.3604 85.6266 28.2378C85.9454 28.1152 86.1876 27.9466 86.3531 27.7321C86.5186 27.5175 86.6014 27.2723 86.6014 26.9964Z" fill="#112233"/>
<path d="M94.703 19.6856V20.9914H89.3234V19.6856H94.703ZM91.1442 17.267H92.8455V27.1711C92.8455 27.5083 92.8976 27.7627 93.0018 27.9344C93.106 28.106 93.2409 28.2194 93.4064 28.2746C93.5719 28.3298 93.7497 28.3574 93.9398 28.3574C94.0808 28.3574 94.2279 28.3451 94.3812 28.3206C94.5406 28.2899 94.6601 28.2654 94.7398 28.247L94.749 29.6356C94.6142 29.6785 94.4364 29.7184 94.2157 29.7552C94.0011 29.7981 93.7405 29.8195 93.434 29.8195C93.0171 29.8195 92.634 29.7368 92.2845 29.5712C91.9351 29.4057 91.6561 29.1298 91.4477 28.7436C91.2454 28.3512 91.1442 27.824 91.1442 27.1619V17.267Z" fill="#112233"/>
<path d="M98.3998 21.2489V29.6356H96.6986V19.6856H98.3538L98.3998 21.2489ZM101.508 19.6304L101.499 21.2121C101.358 21.1815 101.223 21.1631 101.094 21.1569C100.972 21.1447 100.831 21.1385 100.671 21.1385C100.279 21.1385 99.9325 21.1999 99.6321 21.3225C99.3317 21.4451 99.0773 21.6167 98.8688 21.8374C98.6604 22.0581 98.4948 22.3218 98.3722 22.6283C98.2557 22.9287 98.1791 23.2597 98.1423 23.6215L97.6641 23.8973C97.6641 23.2965 97.7224 22.7325 97.8389 22.2053C97.9615 21.678 98.1485 21.2121 98.3998 20.8075C98.6512 20.3967 98.97 20.0779 99.3562 19.8511C99.7486 19.6181 100.214 19.5017 100.754 19.5017C100.877 19.5017 101.018 19.517 101.177 19.5476C101.336 19.5722 101.447 19.5998 101.508 19.6304Z" fill="#112233"/>
<path d="M104.929 19.6856V29.6356H103.219V19.6856H104.929ZM103.09 17.0463C103.09 16.7705 103.173 16.5375 103.338 16.3475C103.51 16.1574 103.761 16.0624 104.092 16.0624C104.417 16.0624 104.665 16.1574 104.837 16.3475C105.015 16.5375 105.104 16.7705 105.104 17.0463C105.104 17.31 105.015 17.5368 104.837 17.7268C104.665 17.9108 104.417 18.0027 104.092 18.0027C103.761 18.0027 103.51 17.9108 103.338 17.7268C103.173 17.5368 103.09 17.31 103.09 17.0463Z" fill="#112233"/>
<path d="M113.527 27.9344V22.8122C113.527 22.4199 113.447 22.0796 113.288 21.7915C113.135 21.4972 112.902 21.2704 112.589 21.111C112.277 20.9516 111.89 20.8719 111.43 20.8719C111.001 20.8719 110.624 20.9454 110.299 21.0926C109.981 21.2397 109.729 21.4328 109.545 21.6719C109.368 21.911 109.279 22.1685 109.279 22.4444H107.577C107.577 22.0888 107.669 21.7363 107.853 21.3868C108.037 21.0374 108.301 20.7217 108.644 20.4397C108.994 20.1515 109.41 19.9247 109.895 19.7592C110.385 19.5875 110.931 19.5017 111.532 19.5017C112.255 19.5017 112.893 19.6243 113.444 19.8695C114.002 20.1147 114.438 20.4856 114.75 20.9822C115.069 21.4727 115.228 22.0888 115.228 22.8306V27.4654C115.228 27.7964 115.256 28.1489 115.311 28.5229C115.372 28.8969 115.461 29.2187 115.578 29.4885V29.6356H113.803C113.717 29.4394 113.65 29.1789 113.601 28.854C113.552 28.5229 113.527 28.2164 113.527 27.9344ZM113.821 23.6031L113.84 24.7985H112.12C111.636 24.7985 111.204 24.8384 110.824 24.9181C110.443 24.9917 110.125 25.1051 109.867 25.2583C109.61 25.4116 109.414 25.6047 109.279 25.8377C109.144 26.0645 109.076 26.3312 109.076 26.6377C109.076 26.9504 109.147 27.2355 109.288 27.493C109.429 27.7504 109.64 27.9558 109.922 28.1091C110.21 28.2562 110.563 28.3298 110.98 28.3298C111.501 28.3298 111.961 28.2194 112.359 27.9987C112.758 27.778 113.074 27.5083 113.306 27.1895C113.546 26.8707 113.674 26.5611 113.693 26.2607L114.419 27.0791C114.376 27.3366 114.26 27.6217 114.07 27.9344C113.88 28.247 113.625 28.5474 113.306 28.8356C112.994 29.1176 112.62 29.3536 112.185 29.5437C111.755 29.7276 111.271 29.8195 110.732 29.8195C110.057 29.8195 109.466 29.6877 108.957 29.4241C108.454 29.1605 108.062 28.808 107.78 28.3666C107.504 27.919 107.366 27.4194 107.366 26.8676C107.366 26.3343 107.47 25.8653 107.679 25.4606C107.887 25.0499 108.187 24.7096 108.58 24.4399C108.972 24.164 109.444 23.9556 109.996 23.8146C110.548 23.6736 111.164 23.6031 111.844 23.6031H113.821Z" fill="#112233"/>
<path d="M119.753 15.5106V29.6356H118.042V15.5106H119.753Z" fill="#112233"/>
</svg>
