<svg width="146" height="34" viewBox="0 0 146 34" fill="none" xmlns="http://www.w3.org/2000/svg">
<path fill-rule="evenodd" clip-rule="evenodd" d="M32.8244 2.48C29.6912 0.854742 26.214 0.0043095 22.6844 0C16.2244 0.11 11.6844 4.48 11.7444 11C11.8544 17.25 15.3444 18.56 20.6344 20C22.4444 20.49 25.7544 21.24 25.7944 23.6C25.8344 25.96 23.7944 26.89 21.7944 26.92C18.9244 26.97 16.4244 25.52 14.2944 23.71L10.8044 30.53C14.1635 32.8182 18.1401 34.0286 22.2044 34C25.5223 34.0345 28.7468 32.9018 31.3144 30.8C33.8444 28.58 34.6644 24.99 34.4944 22.05C34.2144 17.12 30.2644 14.58 26.3844 13.37L24.2344 12.77C22.7744 12.33 20.4944 11.64 20.4544 9.77C20.4144 7.9 22.4644 7 23.9944 7C26.042 7.01491 28.0211 7.73939 29.5944 9.05L32.8244 2.48Z" fill="#FF8C00"/>
<path d="M9.55439 0.560059H0.994385V33.5001H9.55439V0.560059Z" fill="#FF8C00"/>
<path d="M71.6744 0.560059H63.1144V33.5001H71.6744V0.560059Z" fill="#FF8C00"/>
<path fill-rule="evenodd" clip-rule="evenodd" d="M52.9244 20.0001C57.5944 19.1701 60.1344 15.2401 60.1344 10.7001C60.1344 3.67006 55.1944 0.560059 48.6944 0.560059H35.8944V33.5101H44.4544V20.8301H44.5444L51.3544 33.5101H61.9944L52.9244 20.0001ZM45.2844 15.3301H44.4544V7.11006H45.2844C48.0844 7.11006 51.2244 7.64006 51.2244 11.2201C51.2244 14.8001 48.0844 15.3301 45.2844 15.3301Z" fill="#FF8C00"/>
<path fill-rule="evenodd" clip-rule="evenodd" d="M76.6344 6.6203C77.1602 6.62225 77.6747 6.46773 78.1124 6.1764C78.5502 5.88507 78.8913 5.47011 79.0925 4.98431C79.2937 4.49851 79.3459 3.96384 79.2423 3.44832C79.1387 2.93281 78.8841 2.45976 78.5109 2.08937C78.1377 1.71898 77.6627 1.46799 77.1464 1.36834C76.6301 1.26869 76.0959 1.32488 75.6116 1.52977C75.1274 1.73465 74.715 2.07897 74.427 2.51891C74.139 2.95885 73.9884 3.47451 73.9944 4.0003C73.9996 4.697 74.2801 5.36336 74.7746 5.85414C75.2692 6.34492 75.9377 6.62032 76.6344 6.6203ZM76.6344 1.7503C77.0722 1.75034 77.5002 1.87981 77.8646 2.12245C78.229 2.36509 78.5135 2.71005 78.6824 3.11395C78.8512 3.51786 78.8969 3.96268 78.8137 4.39248C78.7304 4.82228 78.5219 5.21787 78.2144 5.5295C77.907 5.84114 77.5142 6.0549 77.0856 6.14392C76.6569 6.23294 76.2115 6.19323 75.8054 6.02979C75.3993 5.86636 75.0505 5.58649 74.803 5.22538C74.5555 4.86427 74.4203 4.43804 74.4144 4.0003C74.4104 3.70625 74.4649 3.41434 74.5747 3.14152C74.6845 2.86871 74.8473 2.62042 75.0539 2.41109C75.2604 2.20175 75.5065 2.03554 75.7778 1.92211C76.0491 1.80867 76.3403 1.75027 76.6344 1.7503ZM77.0644 4.0903C77.1605 4.09481 77.2565 4.07886 77.3461 4.04349C77.4356 4.00813 77.5166 3.95416 77.5837 3.88515C77.6509 3.81615 77.7026 3.73368 77.7354 3.6432C77.7683 3.55272 77.7816 3.45629 77.7744 3.3603C77.7744 2.7903 77.3444 2.6503 76.8544 2.6503H75.7244V5.3303H76.1144V4.0903H76.6144L77.3044 5.3303H77.7444L77.0644 4.0903ZM76.7844 3.0903C77.1044 3.0903 77.3944 3.0903 77.3944 3.4503C77.3944 3.8103 76.8944 3.7503 76.5244 3.7503H76.1144V3.0003L76.7844 3.0903Z" fill="#FF8C00"/>
<path d="M77.1144 26.96H75.4244V33.47H77.1144V26.96Z" fill="black"/>
<path fill-rule="evenodd" clip-rule="evenodd" d="M82.6644 27.33C82.0496 26.9949 81.3643 26.8098 80.6644 26.79C80.3647 26.7654 80.0632 26.8051 79.7802 26.9065C79.4971 27.0079 79.239 27.1686 79.0231 27.3779C78.8072 27.5872 78.6385 27.8401 78.5284 28.1199C78.4182 28.3997 78.3691 28.6998 78.3844 29C78.3844 30.26 79.0844 30.54 80.1444 30.84C80.5044 30.94 81.1444 31.1 81.1444 31.58C81.1444 32.06 80.7144 32.24 80.3244 32.24C79.7556 32.2023 79.2196 31.9609 78.8144 31.56L78.0944 32.93C78.7659 33.4013 79.564 33.6592 80.3844 33.67C81.0688 33.6837 81.7343 33.4452 82.2544 33C82.4904 32.777 82.6738 32.5043 82.7914 32.2016C82.909 31.8989 82.9578 31.5739 82.9344 31.25C82.9344 30.2 82.2344 29.74 81.3244 29.47L80.8944 29.34C80.6044 29.25 80.1444 29.1 80.1444 28.72C80.1444 28.34 80.5644 28.18 80.8744 28.18C81.2864 28.1886 81.6825 28.3407 81.9944 28.61L82.6644 27.33Z" fill="black"/>
<path fill-rule="evenodd" clip-rule="evenodd" d="M87.2944 30.81C87.7117 30.733 88.0867 30.5069 88.3498 30.174C88.6129 29.841 88.746 29.4238 88.7244 29C88.7244 27.6 87.7244 27 86.4644 27H83.9344V33.52H85.6244V31L87.2244 33.51H89.3244L87.2944 30.81ZM85.6244 28.26H85.7844C86.3444 28.26 86.9644 28.36 86.9644 29.07C86.9644 29.78 86.3444 29.89 85.7844 29.89H85.6244V28.26Z" fill="black"/>
<path d="M91.6844 26.96H89.9944V33.47H91.6844V26.96Z" fill="black"/>
<path fill-rule="evenodd" clip-rule="evenodd" d="M92.9944 33.48H94.6844V29.49H94.7044L97.8044 33.48H99.4944V26.96H97.8044V30.95H97.7844L94.6844 26.96H92.9944V33.48Z" fill="black"/>
<path fill-rule="evenodd" clip-rule="evenodd" d="M103.674 29.8399V31.1699H105.054C105.042 31.3344 104.997 31.4948 104.921 31.6414C104.845 31.788 104.741 31.9178 104.614 32.0233C104.487 32.1287 104.34 32.2075 104.182 32.255C104.024 32.3026 103.858 32.3178 103.694 32.2999C103.449 32.2835 103.209 32.2185 102.989 32.1089C102.769 31.9992 102.573 31.8469 102.412 31.6609C102.251 31.4749 102.129 31.2589 102.052 31.0253C101.975 30.7917 101.945 30.5451 101.964 30.2999C101.938 30.0531 101.962 29.8036 102.033 29.566C102.105 29.3285 102.224 29.1076 102.382 28.9166C102.541 28.7256 102.736 28.5682 102.956 28.4537C103.176 28.3392 103.417 28.2699 103.664 28.2499C103.974 28.2469 104.276 28.3421 104.527 28.5218C104.779 28.7015 104.967 28.9565 105.064 29.2499L106.674 28.5799C106.433 28.012 106.021 27.5325 105.497 27.2067C104.973 26.881 104.361 26.725 103.744 26.7599C103.275 26.7311 102.804 26.8019 102.363 26.9677C101.923 27.1334 101.522 27.3905 101.188 27.7219C100.854 28.0533 100.593 28.4516 100.424 28.8908C100.254 29.3299 100.18 29.7999 100.204 30.2699C100.184 30.7292 100.26 31.1876 100.428 31.6156C100.596 32.0436 100.851 32.4317 101.178 32.7549C101.505 33.078 101.896 33.3291 102.326 33.4919C102.756 33.6547 103.215 33.7255 103.674 33.6999C104.194 33.7251 104.711 33.6214 105.18 33.398C105.65 33.1747 106.056 32.8387 106.364 32.4199C106.862 31.6598 107.095 30.756 107.024 29.8499L103.674 29.8399Z" fill="black"/>
<path fill-rule="evenodd" clip-rule="evenodd" d="M109.524 29.47V26.96H107.834V33.48H109.524V30.81H111.964V33.48H113.654V26.96H111.964V29.47H109.524Z" fill="black"/>
<path fill-rule="evenodd" clip-rule="evenodd" d="M118.994 32.35L119.424 33.48H121.224L118.724 27H116.874L114.374 33.52H116.164L116.614 32.39L118.994 32.35ZM118.544 31.05H117.134L117.834 28.98L118.544 31.05Z" fill="black"/>
<path fill-rule="evenodd" clip-rule="evenodd" d="M125.594 27V30.43C125.594 31.28 125.534 32.2 124.444 32.2C123.354 32.2 123.294 31.28 123.294 30.43V27H121.604V30.67C121.55 31.0781 121.582 31.4931 121.699 31.8877C121.817 32.2824 122.016 32.6478 122.284 32.96C122.905 33.4336 123.664 33.6902 124.444 33.6902C125.225 33.6902 125.984 33.4336 126.604 32.96C126.869 32.6452 127.065 32.2795 127.182 31.8856C127.299 31.4917 127.334 31.0779 127.284 30.67V27H125.594Z" fill="black"/>
<path fill-rule="evenodd" clip-rule="evenodd" d="M132.794 27.33C132.18 26.9934 131.495 26.8083 130.794 26.79C130.495 26.7654 130.193 26.8051 129.91 26.9065C129.627 27.0079 129.369 27.1686 129.153 27.3779C128.937 27.5872 128.769 27.8401 128.658 28.1199C128.548 28.3997 128.499 28.6998 128.514 29C128.514 30.26 129.214 30.54 130.274 30.84C130.634 30.94 131.274 31.1 131.274 31.58C131.274 32.06 130.854 32.24 130.454 32.24C129.888 32.2044 129.354 31.9625 128.954 31.56L128.224 32.93C128.896 33.4013 129.694 33.6592 130.514 33.67C131.202 33.6833 131.87 33.4451 132.394 33C132.629 32.7765 132.811 32.5034 132.927 32.2007C133.043 31.898 133.09 31.5732 133.064 31.25C133.064 30.2 132.364 29.74 131.454 29.47L131.024 29.34C130.734 29.25 130.274 29.1 130.274 28.72C130.274 28.34 130.694 28.18 131.004 28.18C131.416 28.1886 131.812 28.3407 132.124 28.61L132.794 27.33Z" fill="black"/>
<path fill-rule="evenodd" clip-rule="evenodd" d="M137.764 28.4V26.96H134.064V33.48H137.764V32.04H135.754V30.92H137.664V29.49H135.754V28.4H137.764Z" fill="black"/>
<path fill-rule="evenodd" clip-rule="evenodd" d="M139.004 33.48H140.704V29.49H140.714L143.814 33.48H145.504V26.96H143.814V30.95H143.794L140.704 26.96H139.004V33.48Z" fill="black"/>
<path d="M145.804 0.0597615H125.164C122.561 0.128599 120.049 1.02925 117.994 2.62976C115.848 0.967457 113.21 0.0654468 110.494 0.0654468C107.779 0.0654468 105.141 0.967457 102.994 2.62976C100.52 0.689259 97.3947 -0.224798 94.265 0.0770884C91.1353 0.378974 88.2419 1.87365 86.1845 4.25124C84.1271 6.62884 83.0635 9.70699 83.2143 12.8476C83.3651 15.9881 84.7187 18.9502 86.9944 21.1198H75.1444V24.5598H95.8744C98.4595 24.4846 100.953 23.5879 102.994 21.9998C105.14 23.6653 107.778 24.5694 110.494 24.5694C113.21 24.5694 115.849 23.6653 117.994 21.9998C120.474 23.8864 123.579 24.7574 126.678 24.4355C129.777 24.1136 132.637 22.623 134.676 20.2669C136.714 17.9109 137.779 14.8666 137.652 11.7535C137.526 8.6404 136.218 5.69252 133.994 3.50976H145.744L145.804 0.0597615ZM100.604 19.4898C99.2855 20.4307 97.7329 20.9902 96.117 21.1069C94.5011 21.2235 92.8842 20.8928 91.4438 20.1511C90.0035 19.4093 88.7952 18.2852 87.9517 16.902C87.1082 15.5187 86.6619 13.9299 86.6619 12.3098C86.6619 10.6896 87.1082 9.10078 87.9517 7.71756C88.7952 6.33434 90.0035 5.21018 91.4438 4.46843C92.8842 3.72668 94.5011 3.396 96.117 3.51266C97.7329 3.62932 99.2855 4.18881 100.604 5.12976C99.0903 7.2176 98.2749 9.73068 98.2749 12.3098C98.2749 14.8888 99.0903 17.4019 100.604 19.4898ZM103.004 16.9198C102.16 15.5302 101.714 13.9356 101.714 12.3098C101.714 10.6839 102.16 9.08933 103.004 7.69976C103.855 9.08702 104.305 10.6825 104.305 12.3098C104.305 13.937 103.855 15.5325 103.004 16.9198ZM110.524 21.1298C108.691 21.1318 106.904 20.5582 105.414 19.4898C106.923 17.3995 107.735 14.8874 107.735 12.3098C107.735 9.73214 106.923 7.21999 105.414 5.12976C106.905 4.06308 108.692 3.48953 110.524 3.48953C112.357 3.48953 114.144 4.06308 115.634 5.12976C114.12 7.2176 113.305 9.73068 113.305 12.3098C113.305 14.8888 114.12 17.4019 115.634 19.4898C114.144 20.557 112.357 21.1305 110.524 21.1298ZM117.994 16.9198C117.15 15.5302 116.704 13.9356 116.704 12.3098C116.704 10.6839 117.15 9.08933 117.994 7.69976C118.845 9.08702 119.295 10.6825 119.295 12.3098C119.295 13.937 118.845 15.5325 117.994 16.9198ZM134.324 12.3098C134.329 13.9291 133.886 15.5182 133.045 16.9022C132.204 18.2861 130.998 19.4111 129.558 20.1535C128.119 20.8958 126.503 21.2266 124.888 21.1095C123.273 20.9924 121.721 20.4319 120.404 19.4898C121.913 17.3995 122.725 14.8874 122.725 12.3098C122.725 9.73214 121.913 7.21999 120.404 5.12976C121.721 4.18758 123.273 3.62709 124.888 3.50999C126.503 3.39288 128.119 3.72371 129.558 4.46605C130.998 5.20839 132.204 6.33345 133.045 7.71737C133.886 9.10129 134.329 10.6904 134.324 12.3098Z" fill="#FF8C00"/>
</svg>
