<svg width="32" height="32" viewBox="0 0 32 32" fill="none" xmlns="http://www.w3.org/2000/svg">
<path d="M29.8462 14.8462H20.6154C19.9781 14.8462 19.4615 15.3628 19.4615 16V29.8462C19.4615 30.4834 19.9781 31 20.6154 31H29.8462C30.4834 31 31 30.4834 31 29.8462V16C31 15.3628 30.4834 14.8462 29.8462 14.8462Z" stroke="#130543" stroke-width="2" stroke-linecap="round" stroke-linejoin="round"/>
<path d="M29.8462 1H20.6154C19.9781 1 19.4615 1.51659 19.4615 2.15385V6.79231C19.4615 7.42956 19.9781 7.94615 20.6154 7.94615H29.8462C30.4834 7.94615 31 7.42956 31 6.79231V2.15385C31 1.51659 30.4834 1 29.8462 1Z" stroke="#130543" stroke-width="2" stroke-linecap="round" stroke-linejoin="round"/>
<path d="M11.3846 1H2.15385C1.51659 1 1 1.51659 1 2.15385V16C1 16.6372 1.51659 17.1538 2.15385 17.1538H11.3846C12.0219 17.1538 12.5385 16.6372 12.5385 16V2.15385C12.5385 1.51659 12.0219 1 11.3846 1Z" stroke="#130543" stroke-width="2" stroke-linecap="round" stroke-linejoin="round"/>
<path d="M11.3846 24.0537H2.15385C1.51659 24.0537 1 24.5703 1 25.2076V29.846C1 30.4833 1.51659 30.9999 2.15385 30.9999H11.3846C12.0219 30.9999 12.5385 30.4833 12.5385 29.846V25.2076C12.5385 24.5703 12.0219 24.0537 11.3846 24.0537Z" stroke="#130543" stroke-width="2" stroke-linecap="round" stroke-linejoin="round"/>
</svg>
