<svg width="32" height="29" viewBox="0 0 32 29" fill="none" xmlns="http://www.w3.org/2000/svg">
<path d="M7.62158 11.5687L13.4819 2.20142C13.709 1.83117 14.0281 1.52607 14.4082 1.31581C14.7883 1.10556 15.2163 0.997331 15.6507 1.00167V1.00167C15.9927 0.98932 16.3338 1.04567 16.6537 1.16739C16.9736 1.2891 17.2659 1.47372 17.5133 1.71031C17.7606 1.94691 17.958 2.2307 18.0938 2.54489C18.2297 2.85909 18.3011 3.19732 18.304 3.5396V10.2536H28.4326C28.8069 10.2657 29.1743 10.3569 29.5108 10.5212C29.8473 10.6855 30.1452 10.9192 30.3849 11.2069C30.6246 11.4945 30.8008 11.8297 30.9017 12.1903C31.0026 12.5509 31.0261 12.9288 30.9705 13.2991L29.1248 25.2043C29.046 25.8405 28.7376 26.4261 28.2575 26.851C27.7775 27.2758 27.1587 27.5107 26.5176 27.5115H11.3823C10.6618 27.5143 9.95069 27.3484 9.30584 27.027L7.64465 26.1964" stroke="#130543" stroke-width="2" stroke-linecap="round" stroke-linejoin="round"/>
<path d="M7.62158 11.5686V26.1271" stroke="#130543" stroke-width="2" stroke-linecap="round" stroke-linejoin="round"/>
<path d="M2.1536 11.5686H7.62169V26.1271H2.1536C1.84765 26.1271 1.55423 26.0056 1.33788 25.7892C1.12154 25.5729 1 25.2794 1 24.9735V12.7222C1 12.4163 1.12154 12.1228 1.33788 11.9065C1.55423 11.6901 1.84765 11.5686 2.1536 11.5686V11.5686Z" stroke="#130543" stroke-width="2" stroke-linecap="round" stroke-linejoin="round"/>
</svg>
