<svg width="32" height="35" viewBox="0 0 32 35" fill="none" xmlns="http://www.w3.org/2000/svg">
<path d="M11.5512 5.3985L12.632 2.6086C12.8143 2.13623 13.135 1.72993 13.552 1.4429C13.9691 1.15587 14.4632 1.0015 14.9695 1H17.0305C17.5368 1.0015 18.0309 1.15587 18.448 1.4429C18.865 1.72993 19.1857 2.13623 19.368 2.6086L20.4488 5.3985L24.1184 7.50979L27.0842 7.05737C27.5781 6.99034 28.0807 7.07163 28.5282 7.29093C28.9758 7.51022 29.348 7.85761 29.5977 8.28895L30.603 10.0484C30.8607 10.4866 30.9794 10.9926 30.9435 11.4997C30.9076 12.0067 30.7188 12.491 30.402 12.8885L28.5672 15.226V19.4486L30.4522 21.7861C30.769 22.1836 30.9578 22.6679 30.9937 23.1749C31.0296 23.682 30.9109 24.188 30.6533 24.6263L29.6479 26.3857C29.3983 26.817 29.026 27.1644 28.5785 27.3837C28.131 27.603 27.6283 27.6843 27.1345 27.6172L24.1687 27.1648L20.499 29.2761L19.4183 32.066C19.236 32.5384 18.9153 32.9447 18.4982 33.2317C18.0811 33.5187 17.5871 33.6731 17.0808 33.6746H14.9695C14.4632 33.6731 13.9691 33.5187 13.552 33.2317C13.135 32.9447 12.8143 32.5384 12.632 32.066L11.5512 29.2761L7.88162 27.1648L4.91577 27.6172C4.42192 27.6843 3.91929 27.603 3.47176 27.3837C3.02422 27.1644 2.65198 26.817 2.40234 26.3857L1.39696 24.6263C1.13934 24.188 1.02065 23.682 1.05655 23.1749C1.09244 22.6679 1.28125 22.1836 1.59804 21.7861L3.43284 19.4486V15.226L1.54777 12.8885C1.23098 12.491 1.04217 12.0067 1.00628 11.4997C0.970378 10.9926 1.08907 10.4866 1.3467 10.0484L2.35207 8.28895C2.60171 7.85761 2.97395 7.51022 3.42149 7.29093C3.86903 7.07163 4.37165 6.99034 4.8655 7.05737L7.83135 7.50979L11.5512 5.3985ZM10.9731 17.3373C10.9731 18.3315 11.268 19.3034 11.8203 20.1301C12.3727 20.9567 13.1578 21.601 14.0763 21.9815C14.9948 22.362 16.0056 22.4615 16.9807 22.2676C17.9558 22.0736 18.8515 21.5949 19.5545 20.8918C20.2575 20.1888 20.7363 19.2931 20.9303 18.318C21.1242 17.3429 21.0247 16.3321 20.6442 15.4136C20.2637 14.4951 19.6194 13.71 18.7928 13.1576C17.9661 12.6053 16.9942 12.3104 16 12.3104C14.6668 12.3104 13.3882 12.8401 12.4455 13.7828C11.5028 14.7255 10.9731 16.0041 10.9731 17.3373V17.3373Z" stroke="#130543" stroke-width="2" stroke-linecap="round" stroke-linejoin="round"/>
</svg>
