<svg width="32" height="32" viewBox="0 0 32 32" fill="none" xmlns="http://www.w3.org/2000/svg">
<path d="M15.9999 18.2998C19.1862 18.2998 21.7692 15.731 21.7692 12.5622C21.7692 9.39349 19.1862 6.82471 15.9999 6.82471C12.8137 6.82471 10.2307 9.39349 10.2307 12.5622C10.2307 15.731 12.8137 18.2998 15.9999 18.2998Z" stroke="#130543" stroke-width="2" stroke-linecap="round" stroke-linejoin="round"/>
<path d="M4.69226 30.9225C5.22191 28.3285 6.63702 25.9963 8.69782 24.3212C10.7586 22.6461 13.3384 21.731 16 21.731C18.6615 21.731 21.2413 22.6461 23.3021 24.3212C25.3629 25.9963 26.778 28.3285 27.3076 30.9225" stroke="#130543" stroke-width="2" stroke-linecap="round" stroke-linejoin="round"/>
<path d="M28.6923 1.0874H3.30769C2.03319 1.0874 1 2.11491 1 3.38242V28.6276C1 29.8951 2.03319 30.9226 3.30769 30.9226H28.6923C29.9668 30.9226 31 29.8951 31 28.6276V3.38242C31 2.11491 29.9668 1.0874 28.6923 1.0874Z" stroke="#130543" stroke-width="2" stroke-linecap="round" stroke-linejoin="round"/>
</svg>
