<svg width="32" height="32" viewBox="0 0 32 32" fill="none" xmlns="http://www.w3.org/2000/svg">
<path d="M6.76923 31.0004C9.95549 31.0004 12.5385 28.4174 12.5385 25.2311C12.5385 22.0449 9.95549 19.4619 6.76923 19.4619C3.58297 19.4619 1 22.0449 1 25.2311C1 28.4174 3.58297 31.0004 6.76923 31.0004Z" stroke="#130543" stroke-width="2" stroke-linecap="round" stroke-linejoin="round"/>
<path d="M12.5384 6.76961V3.30807C12.5384 2.69604 12.2953 2.10907 11.8625 1.67629C11.4297 1.24351 10.8428 1.00038 10.2307 1.00038H7.50766C6.96452 0.990504 6.43531 1.17255 6.01319 1.51447C5.59106 1.85639 5.30309 2.33626 5.19997 2.86961L1.11536 24.0773" stroke="#130543" stroke-width="2" stroke-linecap="round" stroke-linejoin="round"/>
<path d="M10.2308 12.5391H21.7692" stroke="#130543" stroke-width="2" stroke-linecap="round" stroke-linejoin="round"/>
<path d="M12.5385 18.3076V25.2307" stroke="#130543" stroke-width="2" stroke-linecap="round" stroke-linejoin="round"/>
<path d="M25.2308 31.0004C28.417 31.0004 31 28.4174 31 25.2311C31 22.0449 28.417 19.4619 25.2308 19.4619C22.0445 19.4619 19.4615 22.0449 19.4615 25.2311C19.4615 28.4174 22.0445 31.0004 25.2308 31.0004Z" stroke="#130543" stroke-width="2" stroke-linecap="round" stroke-linejoin="round"/>
<path d="M19.4615 6.76961V3.30807C19.4615 2.69604 19.7047 2.10907 20.1375 1.67629C20.5702 1.24351 21.1572 1.00038 21.7692 1.00038H24.4923C25.0355 0.990504 25.5647 1.17255 25.9868 1.51447C26.4089 1.85639 26.6969 2.33626 26.8 2.86961L30.9308 24.0773" stroke="#130543" stroke-width="2" stroke-linecap="round" stroke-linejoin="round"/>
<path d="M19.4615 18.3076V25.2307" stroke="#130543" stroke-width="2" stroke-linecap="round" stroke-linejoin="round"/>
</svg>
