<svg width="32" height="32" viewBox="0 0 32 32" fill="none" xmlns="http://www.w3.org/2000/svg">
<rect width="32" height="32" rx="4" fill="#F0F4F7"/>
<path d="M9.53136 4.53479L2.99886 4.55664L2.49886 4.55831L2.5 5.05831L2.50568 7.54804L2.50682 8.04804L3.00682 8.04637L9.53932 8.02452L9.58485 27.9781L9.58599 28.4781L10.086 28.4765L12.9472 28.4669L13.4472 28.4652L13.446 27.9652L13.4005 8.0116L19.9481 7.9897L20.4481 7.98802L20.4469 7.48803L20.4412 4.9983L20.4401 4.4983L19.9401 4.49997L13.3925 4.52187L12.8925 4.52354L10.0314 4.53312L9.53136 4.53479Z" fill="#261466" stroke="#261466"/>
<path d="M13.5145 8.93729L13.0918 8.93879L13.0929 9.43878L13.1328 27.9699L13.1339 28.4699L13.6339 28.4682L15.5376 28.4614L16.0376 28.4596L16.0365 27.9596L16.021 20.7305L16.0211 20.7305L16.0208 20.7186L15.911 16.4688L19.6111 28.0975L19.7222 28.4466L20.0887 28.4453L21.5363 28.4401L21.9024 28.4388L22.0122 28.0894L25.6722 16.4428L25.5808 20.6847L25.5807 20.6847L25.5807 20.6966L25.5963 27.9257L25.5974 28.4257L26.0974 28.424L28.0011 28.4172L28.5011 28.4154L28.5 27.9154L28.4601 9.38429L28.4591 8.88429L28.047 8.88575L27.9591 8.88606L27.3641 8.88817L26.323 8.89186L25.8347 8.8936L25.5001 8.89478L25.1324 8.89609L25.0236 9.24738L20.8099 22.8438L16.5287 9.27722L16.4182 8.92699L16.0508 8.92829L15.7161 8.92948L15.2278 8.93121L14.1967 8.93487L13.5918 8.93701L13.5145 8.93729Z" fill="#DD251A" stroke="#DD251A"/>
</svg>
