<svg width="290" height="290" viewBox="0 0 290 290" fill="none" xmlns="http://www.w3.org/2000/svg">
<path d="M135 272.5C135 271.119 136.119 270 137.5 270C138.881 270 140 271.119 140 272.5C140 273.881 138.881 275 137.5 275C136.119 275 135 273.881 135 272.5Z" fill="#E4E8ED"/>
<path d="M135 137.5C135 136.119 136.119 135 137.5 135C138.881 135 140 136.119 140 137.5C140 138.881 138.881 140 137.5 140C136.119 140 135 138.881 135 137.5Z" fill="#E4E8ED"/>
<path d="M135 287.5C135 286.119 136.119 285 137.5 285C138.881 285 140 286.119 140 287.5C140 288.881 138.881 290 137.5 290C136.119 290 135 288.881 135 287.5Z" fill="#E4E8ED"/>
<path d="M135 152.5C135 151.119 136.119 150 137.5 150C138.881 150 140 151.119 140 152.5C140 153.881 138.881 155 137.5 155C136.119 155 135 153.881 135 152.5Z" fill="#E4E8ED"/>
<path d="M135 167.5C135 166.119 136.119 165 137.5 165C138.881 165 140 166.119 140 167.5C140 168.881 138.881 170 137.5 170C136.119 170 135 168.881 135 167.5Z" fill="#E4E8ED"/>
<path d="M135 182.5C135 181.119 136.119 180 137.5 180C138.881 180 140 181.119 140 182.5C140 183.881 138.881 185 137.5 185C136.119 185 135 183.881 135 182.5Z" fill="#E4E8ED"/>
<path d="M135 197.5C135 196.119 136.119 195 137.5 195C138.881 195 140 196.119 140 197.5C140 198.881 138.881 200 137.5 200C136.119 200 135 198.881 135 197.5Z" fill="#E4E8ED"/>
<path d="M135 212.5C135 211.119 136.119 210 137.5 210C138.881 210 140 211.119 140 212.5C140 213.881 138.881 215 137.5 215C136.119 215 135 213.881 135 212.5Z" fill="#E4E8ED"/>
<path d="M135 227.5C135 226.119 136.119 225 137.5 225C138.881 225 140 226.119 140 227.5C140 228.881 138.881 230 137.5 230C136.119 230 135 228.881 135 227.5Z" fill="#E4E8ED"/>
<path d="M135 242.5C135 241.119 136.119 240 137.5 240C138.881 240 140 241.119 140 242.5C140 243.881 138.881 245 137.5 245C136.119 245 135 243.881 135 242.5Z" fill="#E4E8ED"/>
<path d="M135 257.5C135 256.119 136.119 255 137.5 255C138.881 255 140 256.119 140 257.5C140 258.881 138.881 260 137.5 260C136.119 260 135 258.881 135 257.5Z" fill="#E4E8ED"/>
<path d="M150 272.5C150 271.119 151.119 270 152.5 270C153.881 270 155 271.119 155 272.5C155 273.881 153.881 275 152.5 275C151.119 275 150 273.881 150 272.5Z" fill="#E4E8ED"/>
<path d="M150 287.5C150 286.119 151.119 285 152.5 285C153.881 285 155 286.119 155 287.5C155 288.881 153.881 290 152.5 290C151.119 290 150 288.881 150 287.5Z" fill="#E4E8ED"/>
<path d="M150 152.5C150 151.119 151.119 150 152.5 150C153.881 150 155 151.119 155 152.5C155 153.881 153.881 155 152.5 155C151.119 155 150 153.881 150 152.5Z" fill="#E4E8ED"/>
<path d="M150 167.5C150 166.119 151.119 165 152.5 165C153.881 165 155 166.119 155 167.5C155 168.881 153.881 170 152.5 170C151.119 170 150 168.881 150 167.5Z" fill="#E4E8ED"/>
<path d="M150 182.5C150 181.119 151.119 180 152.5 180C153.881 180 155 181.119 155 182.5C155 183.881 153.881 185 152.5 185C151.119 185 150 183.881 150 182.5Z" fill="#E4E8ED"/>
<path d="M150 197.5C150 196.119 151.119 195 152.5 195C153.881 195 155 196.119 155 197.5C155 198.881 153.881 200 152.5 200C151.119 200 150 198.881 150 197.5Z" fill="#E4E8ED"/>
<path d="M150 212.5C150 211.119 151.119 210 152.5 210C153.881 210 155 211.119 155 212.5C155 213.881 153.881 215 152.5 215C151.119 215 150 213.881 150 212.5Z" fill="#E4E8ED"/>
<path d="M150 227.5C150 226.119 151.119 225 152.5 225C153.881 225 155 226.119 155 227.5C155 228.881 153.881 230 152.5 230C151.119 230 150 228.881 150 227.5Z" fill="#E4E8ED"/>
<path d="M150 242.5C150 241.119 151.119 240 152.5 240C153.881 240 155 241.119 155 242.5C155 243.881 153.881 245 152.5 245C151.119 245 150 243.881 150 242.5Z" fill="#E4E8ED"/>
<path d="M150 257.5C150 256.119 151.119 255 152.5 255C153.881 255 155 256.119 155 257.5C155 258.881 153.881 260 152.5 260C151.119 260 150 258.881 150 257.5Z" fill="#E4E8ED"/>
<path d="M165 272.5C165 271.119 166.119 270 167.5 270C168.881 270 170 271.119 170 272.5C170 273.881 168.881 275 167.5 275C166.119 275 165 273.881 165 272.5Z" fill="#E4E8ED"/>
<path d="M0 2.5C0 1.11929 1.11929 0 2.5 0C3.88071 0 5 1.11929 5 2.5C5 3.88071 3.88071 5 2.5 5C1.11929 5 0 3.88071 0 2.5Z" fill="#E4E8ED"/>
<path d="M0 272.5C0 271.119 1.11929 270 2.5 270C3.88071 270 5 271.119 5 272.5C5 273.881 3.88071 275 2.5 275C1.11929 275 0 273.881 0 272.5Z" fill="#E4E8ED"/>
<path d="M0 137.5C0 136.119 1.11929 135 2.5 135C3.88071 135 5 136.119 5 137.5C5 138.881 3.88071 140 2.5 140C1.11929 140 0 138.881 0 137.5Z" fill="#E4E8ED"/>
<path d="M165 287.5C165 286.119 166.119 285 167.5 285C168.881 285 170 286.119 170 287.5C170 288.881 168.881 290 167.5 290C166.119 290 165 288.881 165 287.5Z" fill="#E4E8ED"/>
<path d="M0 17.5C0 16.1193 1.11929 15 2.5 15C3.88071 15 5 16.1193 5 17.5C5 18.8807 3.88071 20 2.5 20C1.11929 20 0 18.8807 0 17.5Z" fill="#E4E8ED"/>
<path d="M0 287.5C0 286.119 1.11929 285 2.5 285C3.88071 285 5 286.119 5 287.5C5 288.881 3.88071 290 2.5 290C1.11929 290 0 288.881 0 287.5Z" fill="#E4E8ED"/>
<path d="M0 152.5C0 151.119 1.11929 150 2.5 150C3.88071 150 5 151.119 5 152.5C5 153.881 3.88071 155 2.5 155C1.11929 155 0 153.881 0 152.5Z" fill="#E4E8ED"/>
<path d="M0 32.5C0 31.1193 1.11929 30 2.5 30C3.88071 30 5 31.1193 5 32.5C5 33.8807 3.88071 35 2.5 35C1.11929 35 0 33.8807 0 32.5Z" fill="#E4E8ED"/>
<path d="M165 167.5C165 166.119 166.119 165 167.5 165C168.881 165 170 166.119 170 167.5C170 168.881 168.881 170 167.5 170C166.119 170 165 168.881 165 167.5Z" fill="#E4E8ED"/>
<path d="M0 167.5C0 166.119 1.11929 165 2.5 165C3.88071 165 5 166.119 5 167.5C5 168.881 3.88071 170 2.5 170C1.11929 170 0 168.881 0 167.5Z" fill="#E4E8ED"/>
<path d="M0 47.5C0 46.1193 1.11929 45 2.5 45C3.88071 45 5 46.1193 5 47.5C5 48.8807 3.88071 50 2.5 50C1.11929 50 0 48.8807 0 47.5Z" fill="#E4E8ED"/>
<path d="M165 182.5C165 181.119 166.119 180 167.5 180C168.881 180 170 181.119 170 182.5C170 183.881 168.881 185 167.5 185C166.119 185 165 183.881 165 182.5Z" fill="#E4E8ED"/>
<path d="M0 182.5C0 181.119 1.11929 180 2.5 180C3.88071 180 5 181.119 5 182.5C5 183.881 3.88071 185 2.5 185C1.11929 185 0 183.881 0 182.5Z" fill="#E4E8ED"/>
<path d="M0 62.5C0 61.1193 1.11929 60 2.5 60C3.88071 60 5 61.1193 5 62.5C5 63.8807 3.88071 65 2.5 65C1.11929 65 0 63.8807 0 62.5Z" fill="#E4E8ED"/>
<path d="M165 197.5C165 196.119 166.119 195 167.5 195C168.881 195 170 196.119 170 197.5C170 198.881 168.881 200 167.5 200C166.119 200 165 198.881 165 197.5Z" fill="#E4E8ED"/>
<path d="M0 197.5C0 196.119 1.11929 195 2.5 195C3.88071 195 5 196.119 5 197.5C5 198.881 3.88071 200 2.5 200C1.11929 200 0 198.881 0 197.5Z" fill="#E4E8ED"/>
<path d="M0 77.5C0 76.1193 1.11929 75 2.5 75C3.88071 75 5 76.1193 5 77.5C5 78.8807 3.88071 80 2.5 80C1.11929 80 0 78.8807 0 77.5Z" fill="#E4E8ED"/>
<path d="M165 212.5C165 211.119 166.119 210 167.5 210C168.881 210 170 211.119 170 212.5C170 213.881 168.881 215 167.5 215C166.119 215 165 213.881 165 212.5Z" fill="#E4E8ED"/>
<path d="M0 212.5C0 211.119 1.11929 210 2.5 210C3.88071 210 5 211.119 5 212.5C5 213.881 3.88071 215 2.5 215C1.11929 215 0 213.881 0 212.5Z" fill="#E4E8ED"/>
<path d="M0 92.5C0 91.1193 1.11929 90 2.5 90C3.88071 90 5 91.1193 5 92.5C5 93.8807 3.88071 95 2.5 95C1.11929 95 0 93.8807 0 92.5Z" fill="#E4E8ED"/>
<path d="M165 227.5C165 226.119 166.119 225 167.5 225C168.881 225 170 226.119 170 227.5C170 228.881 168.881 230 167.5 230C166.119 230 165 228.881 165 227.5Z" fill="#E4E8ED"/>
<path d="M0 227.5C0 226.119 1.11929 225 2.5 225C3.88071 225 5 226.119 5 227.5C5 228.881 3.88071 230 2.5 230C1.11929 230 0 228.881 0 227.5Z" fill="#E4E8ED"/>
<path d="M0 107.5C0 106.119 1.11929 105 2.5 105C3.88071 105 5 106.119 5 107.5C5 108.881 3.88071 110 2.5 110C1.11929 110 0 108.881 0 107.5Z" fill="#E4E8ED"/>
<path d="M165 242.5C165 241.119 166.119 240 167.5 240C168.881 240 170 241.119 170 242.5C170 243.881 168.881 245 167.5 245C166.119 245 165 243.881 165 242.5Z" fill="#E4E8ED"/>
<path d="M0 242.5C0 241.119 1.11929 240 2.5 240C3.88071 240 5 241.119 5 242.5C5 243.881 3.88071 245 2.5 245C1.11929 245 0 243.881 0 242.5Z" fill="#E4E8ED"/>
<path d="M0 122.5C0 121.119 1.11929 120 2.5 120C3.88071 120 5 121.119 5 122.5C5 123.881 3.88071 125 2.5 125C1.11929 125 0 123.881 0 122.5Z" fill="#E4E8ED"/>
<path d="M165 257.5C165 256.119 166.119 255 167.5 255C168.881 255 170 256.119 170 257.5C170 258.881 168.881 260 167.5 260C166.119 260 165 258.881 165 257.5Z" fill="#E4E8ED"/>
<path d="M0 257.5C0 256.119 1.11929 255 2.5 255C3.88071 255 5 256.119 5 257.5C5 258.881 3.88071 260 2.5 260C1.11929 260 0 258.881 0 257.5Z" fill="#E4E8ED"/>
<path d="M180 272.5C180 271.119 181.119 270 182.5 270C183.881 270 185 271.119 185 272.5C185 273.881 183.881 275 182.5 275C181.119 275 180 273.881 180 272.5Z" fill="#E4E8ED"/>
<path d="M15 272.5C15 271.119 16.1193 270 17.5 270C18.8807 270 20 271.119 20 272.5C20 273.881 18.8807 275 17.5 275C16.1193 275 15 273.881 15 272.5Z" fill="#E4E8ED"/>
<path d="M15 137.5C15 136.119 16.1193 135 17.5 135C18.8807 135 20 136.119 20 137.5C20 138.881 18.8807 140 17.5 140C16.1193 140 15 138.881 15 137.5Z" fill="#E4E8ED"/>
<path d="M180 287.5C180 286.119 181.119 285 182.5 285C183.881 285 185 286.119 185 287.5C185 288.881 183.881 290 182.5 290C181.119 290 180 288.881 180 287.5Z" fill="#E4E8ED"/>
<path d="M15 17.5C15 16.1193 16.1193 15 17.5 15C18.8807 15 20 16.1193 20 17.5C20 18.8807 18.8807 20 17.5 20C16.1193 20 15 18.8807 15 17.5Z" fill="#E4E8ED"/>
<path d="M15 287.5C15 286.119 16.1193 285 17.5 285C18.8807 285 20 286.119 20 287.5C20 288.881 18.8807 290 17.5 290C16.1193 290 15 288.881 15 287.5Z" fill="#E4E8ED"/>
<path d="M15 152.5C15 151.119 16.1193 150 17.5 150C18.8807 150 20 151.119 20 152.5C20 153.881 18.8807 155 17.5 155C16.1193 155 15 153.881 15 152.5Z" fill="#E4E8ED"/>
<path d="M15 32.5C15 31.1193 16.1193 30 17.5 30C18.8807 30 20 31.1193 20 32.5C20 33.8807 18.8807 35 17.5 35C16.1193 35 15 33.8807 15 32.5Z" fill="#E4E8ED"/>
<path d="M15 167.5C15 166.119 16.1193 165 17.5 165C18.8807 165 20 166.119 20 167.5C20 168.881 18.8807 170 17.5 170C16.1193 170 15 168.881 15 167.5Z" fill="#E4E8ED"/>
<path d="M15 47.5C15 46.1193 16.1193 45 17.5 45C18.8807 45 20 46.1193 20 47.5C20 48.8807 18.8807 50 17.5 50C16.1193 50 15 48.8807 15 47.5Z" fill="#E4E8ED"/>
<path d="M180 182.5C180 181.119 181.119 180 182.5 180C183.881 180 185 181.119 185 182.5C185 183.881 183.881 185 182.5 185C181.119 185 180 183.881 180 182.5Z" fill="#E4E8ED"/>
<path d="M15 182.5C15 181.119 16.1193 180 17.5 180C18.8807 180 20 181.119 20 182.5C20 183.881 18.8807 185 17.5 185C16.1193 185 15 183.881 15 182.5Z" fill="#E4E8ED"/>
<path d="M15 62.5C15 61.1193 16.1193 60 17.5 60C18.8807 60 20 61.1193 20 62.5C20 63.8807 18.8807 65 17.5 65C16.1193 65 15 63.8807 15 62.5Z" fill="#E4E8ED"/>
<path d="M180 197.5C180 196.119 181.119 195 182.5 195C183.881 195 185 196.119 185 197.5C185 198.881 183.881 200 182.5 200C181.119 200 180 198.881 180 197.5Z" fill="#E4E8ED"/>
<path d="M15 197.5C15 196.119 16.1193 195 17.5 195C18.8807 195 20 196.119 20 197.5C20 198.881 18.8807 200 17.5 200C16.1193 200 15 198.881 15 197.5Z" fill="#E4E8ED"/>
<path d="M15 77.5C15 76.1193 16.1193 75 17.5 75C18.8807 75 20 76.1193 20 77.5C20 78.8807 18.8807 80 17.5 80C16.1193 80 15 78.8807 15 77.5Z" fill="#E4E8ED"/>
<path d="M180 212.5C180 211.119 181.119 210 182.5 210C183.881 210 185 211.119 185 212.5C185 213.881 183.881 215 182.5 215C181.119 215 180 213.881 180 212.5Z" fill="#E4E8ED"/>
<path d="M15 212.5C15 211.119 16.1193 210 17.5 210C18.8807 210 20 211.119 20 212.5C20 213.881 18.8807 215 17.5 215C16.1193 215 15 213.881 15 212.5Z" fill="#E4E8ED"/>
<path d="M15 92.5C15 91.1193 16.1193 90 17.5 90C18.8807 90 20 91.1193 20 92.5C20 93.8807 18.8807 95 17.5 95C16.1193 95 15 93.8807 15 92.5Z" fill="#E4E8ED"/>
<path d="M180 227.5C180 226.119 181.119 225 182.5 225C183.881 225 185 226.119 185 227.5C185 228.881 183.881 230 182.5 230C181.119 230 180 228.881 180 227.5Z" fill="#E4E8ED"/>
<path d="M15 227.5C15 226.119 16.1193 225 17.5 225C18.8807 225 20 226.119 20 227.5C20 228.881 18.8807 230 17.5 230C16.1193 230 15 228.881 15 227.5Z" fill="#E4E8ED"/>
<path d="M15 107.5C15 106.119 16.1193 105 17.5 105C18.8807 105 20 106.119 20 107.5C20 108.881 18.8807 110 17.5 110C16.1193 110 15 108.881 15 107.5Z" fill="#E4E8ED"/>
<path d="M180 242.5C180 241.119 181.119 240 182.5 240C183.881 240 185 241.119 185 242.5C185 243.881 183.881 245 182.5 245C181.119 245 180 243.881 180 242.5Z" fill="#E4E8ED"/>
<path d="M15 242.5C15 241.119 16.1193 240 17.5 240C18.8807 240 20 241.119 20 242.5C20 243.881 18.8807 245 17.5 245C16.1193 245 15 243.881 15 242.5Z" fill="#E4E8ED"/>
<path d="M15 122.5C15 121.119 16.1193 120 17.5 120C18.8807 120 20 121.119 20 122.5C20 123.881 18.8807 125 17.5 125C16.1193 125 15 123.881 15 122.5Z" fill="#E4E8ED"/>
<path d="M180 257.5C180 256.119 181.119 255 182.5 255C183.881 255 185 256.119 185 257.5C185 258.881 183.881 260 182.5 260C181.119 260 180 258.881 180 257.5Z" fill="#E4E8ED"/>
<path d="M15 257.5C15 256.119 16.1193 255 17.5 255C18.8807 255 20 256.119 20 257.5C20 258.881 18.8807 260 17.5 260C16.1193 260 15 258.881 15 257.5Z" fill="#E4E8ED"/>
<path d="M195 272.5C195 271.119 196.119 270 197.5 270C198.881 270 200 271.119 200 272.5C200 273.881 198.881 275 197.5 275C196.119 275 195 273.881 195 272.5Z" fill="#E4E8ED"/>
<path d="M30 272.5C30 271.119 31.1193 270 32.5 270C33.8807 270 35 271.119 35 272.5C35 273.881 33.8807 275 32.5 275C31.1193 275 30 273.881 30 272.5Z" fill="#E4E8ED"/>
<path d="M30 137.5C30 136.119 31.1193 135 32.5 135C33.8807 135 35 136.119 35 137.5C35 138.881 33.8807 140 32.5 140C31.1193 140 30 138.881 30 137.5Z" fill="#E4E8ED"/>
<path d="M195 287.5C195 286.119 196.119 285 197.5 285C198.881 285 200 286.119 200 287.5C200 288.881 198.881 290 197.5 290C196.119 290 195 288.881 195 287.5Z" fill="#E4E8ED"/>
<path d="M30 287.5C30 286.119 31.1193 285 32.5 285C33.8807 285 35 286.119 35 287.5C35 288.881 33.8807 290 32.5 290C31.1193 290 30 288.881 30 287.5Z" fill="#E4E8ED"/>
<path d="M30 152.5C30 151.119 31.1193 150 32.5 150C33.8807 150 35 151.119 35 152.5C35 153.881 33.8807 155 32.5 155C31.1193 155 30 153.881 30 152.5Z" fill="#E4E8ED"/>
<path d="M30 32.5C30 31.1193 31.1193 30 32.5 30C33.8807 30 35 31.1193 35 32.5C35 33.8807 33.8807 35 32.5 35C31.1193 35 30 33.8807 30 32.5Z" fill="#E4E8ED"/>
<path d="M30 167.5C30 166.119 31.1193 165 32.5 165C33.8807 165 35 166.119 35 167.5C35 168.881 33.8807 170 32.5 170C31.1193 170 30 168.881 30 167.5Z" fill="#E4E8ED"/>
<path d="M30 47.5C30 46.1193 31.1193 45 32.5 45C33.8807 45 35 46.1193 35 47.5C35 48.8807 33.8807 50 32.5 50C31.1193 50 30 48.8807 30 47.5Z" fill="#E4E8ED"/>
<path d="M30 182.5C30 181.119 31.1193 180 32.5 180C33.8807 180 35 181.119 35 182.5C35 183.881 33.8807 185 32.5 185C31.1193 185 30 183.881 30 182.5Z" fill="#E4E8ED"/>
<path d="M30 62.5C30 61.1193 31.1193 60 32.5 60C33.8807 60 35 61.1193 35 62.5C35 63.8807 33.8807 65 32.5 65C31.1193 65 30 63.8807 30 62.5Z" fill="#E4E8ED"/>
<path d="M195 197.5C195 196.119 196.119 195 197.5 195C198.881 195 200 196.119 200 197.5C200 198.881 198.881 200 197.5 200C196.119 200 195 198.881 195 197.5Z" fill="#E4E8ED"/>
<path d="M30 197.5C30 196.119 31.1193 195 32.5 195C33.8807 195 35 196.119 35 197.5C35 198.881 33.8807 200 32.5 200C31.1193 200 30 198.881 30 197.5Z" fill="#E4E8ED"/>
<path d="M30 77.5C30 76.1193 31.1193 75 32.5 75C33.8807 75 35 76.1193 35 77.5C35 78.8807 33.8807 80 32.5 80C31.1193 80 30 78.8807 30 77.5Z" fill="#E4E8ED"/>
<path d="M195 212.5C195 211.119 196.119 210 197.5 210C198.881 210 200 211.119 200 212.5C200 213.881 198.881 215 197.5 215C196.119 215 195 213.881 195 212.5Z" fill="#E4E8ED"/>
<path d="M30 212.5C30 211.119 31.1193 210 32.5 210C33.8807 210 35 211.119 35 212.5C35 213.881 33.8807 215 32.5 215C31.1193 215 30 213.881 30 212.5Z" fill="#E4E8ED"/>
<path d="M30 92.5C30 91.1193 31.1193 90 32.5 90C33.8807 90 35 91.1193 35 92.5C35 93.8807 33.8807 95 32.5 95C31.1193 95 30 93.8807 30 92.5Z" fill="#E4E8ED"/>
<path d="M195 227.5C195 226.119 196.119 225 197.5 225C198.881 225 200 226.119 200 227.5C200 228.881 198.881 230 197.5 230C196.119 230 195 228.881 195 227.5Z" fill="#E4E8ED"/>
<path d="M30 227.5C30 226.119 31.1193 225 32.5 225C33.8807 225 35 226.119 35 227.5C35 228.881 33.8807 230 32.5 230C31.1193 230 30 228.881 30 227.5Z" fill="#E4E8ED"/>
<path d="M30 107.5C30 106.119 31.1193 105 32.5 105C33.8807 105 35 106.119 35 107.5C35 108.881 33.8807 110 32.5 110C31.1193 110 30 108.881 30 107.5Z" fill="#E4E8ED"/>
<path d="M195 242.5C195 241.119 196.119 240 197.5 240C198.881 240 200 241.119 200 242.5C200 243.881 198.881 245 197.5 245C196.119 245 195 243.881 195 242.5Z" fill="#E4E8ED"/>
<path d="M30 242.5C30 241.119 31.1193 240 32.5 240C33.8807 240 35 241.119 35 242.5C35 243.881 33.8807 245 32.5 245C31.1193 245 30 243.881 30 242.5Z" fill="#E4E8ED"/>
<path d="M30 122.5C30 121.119 31.1193 120 32.5 120C33.8807 120 35 121.119 35 122.5C35 123.881 33.8807 125 32.5 125C31.1193 125 30 123.881 30 122.5Z" fill="#E4E8ED"/>
<path d="M195 257.5C195 256.119 196.119 255 197.5 255C198.881 255 200 256.119 200 257.5C200 258.881 198.881 260 197.5 260C196.119 260 195 258.881 195 257.5Z" fill="#E4E8ED"/>
<path d="M30 257.5C30 256.119 31.1193 255 32.5 255C33.8807 255 35 256.119 35 257.5C35 258.881 33.8807 260 32.5 260C31.1193 260 30 258.881 30 257.5Z" fill="#E4E8ED"/>
<path d="M210 272.5C210 271.119 211.119 270 212.5 270C213.881 270 215 271.119 215 272.5C215 273.881 213.881 275 212.5 275C211.119 275 210 273.881 210 272.5Z" fill="#E4E8ED"/>
<path d="M45 272.5C45 271.119 46.1193 270 47.5 270C48.8807 270 50 271.119 50 272.5C50 273.881 48.8807 275 47.5 275C46.1193 275 45 273.881 45 272.5Z" fill="#E4E8ED"/>
<path d="M45 137.5C45 136.119 46.1193 135 47.5 135C48.8807 135 50 136.119 50 137.5C50 138.881 48.8807 140 47.5 140C46.1193 140 45 138.881 45 137.5Z" fill="#E4E8ED"/>
<path d="M210 287.5C210 286.119 211.119 285 212.5 285C213.881 285 215 286.119 215 287.5C215 288.881 213.881 290 212.5 290C211.119 290 210 288.881 210 287.5Z" fill="#E4E8ED"/>
<path d="M45 287.5C45 286.119 46.1193 285 47.5 285C48.8807 285 50 286.119 50 287.5C50 288.881 48.8807 290 47.5 290C46.1193 290 45 288.881 45 287.5Z" fill="#E4E8ED"/>
<path d="M45 152.5C45 151.119 46.1193 150 47.5 150C48.8807 150 50 151.119 50 152.5C50 153.881 48.8807 155 47.5 155C46.1193 155 45 153.881 45 152.5Z" fill="#E4E8ED"/>
<path d="M45 167.5C45 166.119 46.1193 165 47.5 165C48.8807 165 50 166.119 50 167.5C50 168.881 48.8807 170 47.5 170C46.1193 170 45 168.881 45 167.5Z" fill="#E4E8ED"/>
<path d="M45 47.5C45 46.1193 46.1193 45 47.5 45C48.8807 45 50 46.1193 50 47.5C50 48.8807 48.8807 50 47.5 50C46.1193 50 45 48.8807 45 47.5Z" fill="#E4E8ED"/>
<path d="M45 182.5C45 181.119 46.1193 180 47.5 180C48.8807 180 50 181.119 50 182.5C50 183.881 48.8807 185 47.5 185C46.1193 185 45 183.881 45 182.5Z" fill="#E4E8ED"/>
<path d="M45 62.5C45 61.1193 46.1193 60 47.5 60C48.8807 60 50 61.1193 50 62.5C50 63.8807 48.8807 65 47.5 65C46.1193 65 45 63.8807 45 62.5Z" fill="#E4E8ED"/>
<path d="M45 197.5C45 196.119 46.1193 195 47.5 195C48.8807 195 50 196.119 50 197.5C50 198.881 48.8807 200 47.5 200C46.1193 200 45 198.881 45 197.5Z" fill="#E4E8ED"/>
<path d="M45 77.5C45 76.1193 46.1193 75 47.5 75C48.8807 75 50 76.1193 50 77.5C50 78.8807 48.8807 80 47.5 80C46.1193 80 45 78.8807 45 77.5Z" fill="#E4E8ED"/>
<path d="M210 212.5C210 211.119 211.119 210 212.5 210C213.881 210 215 211.119 215 212.5C215 213.881 213.881 215 212.5 215C211.119 215 210 213.881 210 212.5Z" fill="#E4E8ED"/>
<path d="M45 212.5C45 211.119 46.1193 210 47.5 210C48.8807 210 50 211.119 50 212.5C50 213.881 48.8807 215 47.5 215C46.1193 215 45 213.881 45 212.5Z" fill="#E4E8ED"/>
<path d="M45 92.5C45 91.1193 46.1193 90 47.5 90C48.8807 90 50 91.1193 50 92.5C50 93.8807 48.8807 95 47.5 95C46.1193 95 45 93.8807 45 92.5Z" fill="#E4E8ED"/>
<path d="M210 227.5C210 226.119 211.119 225 212.5 225C213.881 225 215 226.119 215 227.5C215 228.881 213.881 230 212.5 230C211.119 230 210 228.881 210 227.5Z" fill="#E4E8ED"/>
<path d="M45 227.5C45 226.119 46.1193 225 47.5 225C48.8807 225 50 226.119 50 227.5C50 228.881 48.8807 230 47.5 230C46.1193 230 45 228.881 45 227.5Z" fill="#E4E8ED"/>
<path d="M45 107.5C45 106.119 46.1193 105 47.5 105C48.8807 105 50 106.119 50 107.5C50 108.881 48.8807 110 47.5 110C46.1193 110 45 108.881 45 107.5Z" fill="#E4E8ED"/>
<path d="M210 242.5C210 241.119 211.119 240 212.5 240C213.881 240 215 241.119 215 242.5C215 243.881 213.881 245 212.5 245C211.119 245 210 243.881 210 242.5Z" fill="#E4E8ED"/>
<path d="M45 242.5C45 241.119 46.1193 240 47.5 240C48.8807 240 50 241.119 50 242.5C50 243.881 48.8807 245 47.5 245C46.1193 245 45 243.881 45 242.5Z" fill="#E4E8ED"/>
<path d="M45 122.5C45 121.119 46.1193 120 47.5 120C48.8807 120 50 121.119 50 122.5C50 123.881 48.8807 125 47.5 125C46.1193 125 45 123.881 45 122.5Z" fill="#E4E8ED"/>
<path d="M210 257.5C210 256.119 211.119 255 212.5 255C213.881 255 215 256.119 215 257.5C215 258.881 213.881 260 212.5 260C211.119 260 210 258.881 210 257.5Z" fill="#E4E8ED"/>
<path d="M45 257.5C45 256.119 46.1193 255 47.5 255C48.8807 255 50 256.119 50 257.5C50 258.881 48.8807 260 47.5 260C46.1193 260 45 258.881 45 257.5Z" fill="#E4E8ED"/>
<path d="M225 272.5C225 271.119 226.119 270 227.5 270C228.881 270 230 271.119 230 272.5C230 273.881 228.881 275 227.5 275C226.119 275 225 273.881 225 272.5Z" fill="#E4E8ED"/>
<path d="M60 272.5C60 271.119 61.1193 270 62.5 270C63.8807 270 65 271.119 65 272.5C65 273.881 63.8807 275 62.5 275C61.1193 275 60 273.881 60 272.5Z" fill="#E4E8ED"/>
<path d="M60 137.5C60 136.119 61.1193 135 62.5 135C63.8807 135 65 136.119 65 137.5C65 138.881 63.8807 140 62.5 140C61.1193 140 60 138.881 60 137.5Z" fill="#E4E8ED"/>
<path d="M225 287.5C225 286.119 226.119 285 227.5 285C228.881 285 230 286.119 230 287.5C230 288.881 228.881 290 227.5 290C226.119 290 225 288.881 225 287.5Z" fill="#E4E8ED"/>
<path d="M60 287.5C60 286.119 61.1193 285 62.5 285C63.8807 285 65 286.119 65 287.5C65 288.881 63.8807 290 62.5 290C61.1193 290 60 288.881 60 287.5Z" fill="#E4E8ED"/>
<path d="M60 152.5C60 151.119 61.1193 150 62.5 150C63.8807 150 65 151.119 65 152.5C65 153.881 63.8807 155 62.5 155C61.1193 155 60 153.881 60 152.5Z" fill="#E4E8ED"/>
<path d="M60 167.5C60 166.119 61.1193 165 62.5 165C63.8807 165 65 166.119 65 167.5C65 168.881 63.8807 170 62.5 170C61.1193 170 60 168.881 60 167.5Z" fill="#E4E8ED"/>
<path d="M60 182.5C60 181.119 61.1193 180 62.5 180C63.8807 180 65 181.119 65 182.5C65 183.881 63.8807 185 62.5 185C61.1193 185 60 183.881 60 182.5Z" fill="#E4E8ED"/>
<path d="M60 62.5C60 61.1193 61.1193 60 62.5 60C63.8807 60 65 61.1193 65 62.5C65 63.8807 63.8807 65 62.5 65C61.1193 65 60 63.8807 60 62.5Z" fill="#E4E8ED"/>
<path d="M60 197.5C60 196.119 61.1193 195 62.5 195C63.8807 195 65 196.119 65 197.5C65 198.881 63.8807 200 62.5 200C61.1193 200 60 198.881 60 197.5Z" fill="#E4E8ED"/>
<path d="M60 77.5C60 76.1193 61.1193 75 62.5 75C63.8807 75 65 76.1193 65 77.5C65 78.8807 63.8807 80 62.5 80C61.1193 80 60 78.8807 60 77.5Z" fill="#E4E8ED"/>
<path d="M60 212.5C60 211.119 61.1193 210 62.5 210C63.8807 210 65 211.119 65 212.5C65 213.881 63.8807 215 62.5 215C61.1193 215 60 213.881 60 212.5Z" fill="#E4E8ED"/>
<path d="M60 92.5C60 91.1193 61.1193 90 62.5 90C63.8807 90 65 91.1193 65 92.5C65 93.8807 63.8807 95 62.5 95C61.1193 95 60 93.8807 60 92.5Z" fill="#E4E8ED"/>
<path d="M225 227.5C225 226.119 226.119 225 227.5 225C228.881 225 230 226.119 230 227.5C230 228.881 228.881 230 227.5 230C226.119 230 225 228.881 225 227.5Z" fill="#E4E8ED"/>
<path d="M60 227.5C60 226.119 61.1193 225 62.5 225C63.8807 225 65 226.119 65 227.5C65 228.881 63.8807 230 62.5 230C61.1193 230 60 228.881 60 227.5Z" fill="#E4E8ED"/>
<path d="M60 107.5C60 106.119 61.1193 105 62.5 105C63.8807 105 65 106.119 65 107.5C65 108.881 63.8807 110 62.5 110C61.1193 110 60 108.881 60 107.5Z" fill="#E4E8ED"/>
<path d="M225 242.5C225 241.119 226.119 240 227.5 240C228.881 240 230 241.119 230 242.5C230 243.881 228.881 245 227.5 245C226.119 245 225 243.881 225 242.5Z" fill="#E4E8ED"/>
<path d="M60 242.5C60 241.119 61.1193 240 62.5 240C63.8807 240 65 241.119 65 242.5C65 243.881 63.8807 245 62.5 245C61.1193 245 60 243.881 60 242.5Z" fill="#E4E8ED"/>
<path d="M60 122.5C60 121.119 61.1193 120 62.5 120C63.8807 120 65 121.119 65 122.5C65 123.881 63.8807 125 62.5 125C61.1193 125 60 123.881 60 122.5Z" fill="#E4E8ED"/>
<path d="M225 257.5C225 256.119 226.119 255 227.5 255C228.881 255 230 256.119 230 257.5C230 258.881 228.881 260 227.5 260C226.119 260 225 258.881 225 257.5Z" fill="#E4E8ED"/>
<path d="M60 257.5C60 256.119 61.1193 255 62.5 255C63.8807 255 65 256.119 65 257.5C65 258.881 63.8807 260 62.5 260C61.1193 260 60 258.881 60 257.5Z" fill="#E4E8ED"/>
<path d="M240 272.5C240 271.119 241.119 270 242.5 270C243.881 270 245 271.119 245 272.5C245 273.881 243.881 275 242.5 275C241.119 275 240 273.881 240 272.5Z" fill="#E4E8ED"/>
<path d="M75 272.5C75 271.119 76.1193 270 77.5 270C78.8807 270 80 271.119 80 272.5C80 273.881 78.8807 275 77.5 275C76.1193 275 75 273.881 75 272.5Z" fill="#E4E8ED"/>
<path d="M75 137.5C75 136.119 76.1193 135 77.5 135C78.8807 135 80 136.119 80 137.5C80 138.881 78.8807 140 77.5 140C76.1193 140 75 138.881 75 137.5Z" fill="#E4E8ED"/>
<path d="M240 287.5C240 286.119 241.119 285 242.5 285C243.881 285 245 286.119 245 287.5C245 288.881 243.881 290 242.5 290C241.119 290 240 288.881 240 287.5Z" fill="#E4E8ED"/>
<path d="M75 287.5C75 286.119 76.1193 285 77.5 285C78.8807 285 80 286.119 80 287.5C80 288.881 78.8807 290 77.5 290C76.1193 290 75 288.881 75 287.5Z" fill="#E4E8ED"/>
<path d="M75 152.5C75 151.119 76.1193 150 77.5 150C78.8807 150 80 151.119 80 152.5C80 153.881 78.8807 155 77.5 155C76.1193 155 75 153.881 75 152.5Z" fill="#E4E8ED"/>
<path d="M75 167.5C75 166.119 76.1193 165 77.5 165C78.8807 165 80 166.119 80 167.5C80 168.881 78.8807 170 77.5 170C76.1193 170 75 168.881 75 167.5Z" fill="#E4E8ED"/>
<path d="M75 182.5C75 181.119 76.1193 180 77.5 180C78.8807 180 80 181.119 80 182.5C80 183.881 78.8807 185 77.5 185C76.1193 185 75 183.881 75 182.5Z" fill="#E4E8ED"/>
<path d="M75 197.5C75 196.119 76.1193 195 77.5 195C78.8807 195 80 196.119 80 197.5C80 198.881 78.8807 200 77.5 200C76.1193 200 75 198.881 75 197.5Z" fill="#E4E8ED"/>
<path d="M75 77.5C75 76.1193 76.1193 75 77.5 75C78.8807 75 80 76.1193 80 77.5C80 78.8807 78.8807 80 77.5 80C76.1193 80 75 78.8807 75 77.5Z" fill="#E4E8ED"/>
<path d="M75 212.5C75 211.119 76.1193 210 77.5 210C78.8807 210 80 211.119 80 212.5C80 213.881 78.8807 215 77.5 215C76.1193 215 75 213.881 75 212.5Z" fill="#E4E8ED"/>
<path d="M75 92.5C75 91.1193 76.1193 90 77.5 90C78.8807 90 80 91.1193 80 92.5C80 93.8807 78.8807 95 77.5 95C76.1193 95 75 93.8807 75 92.5Z" fill="#E4E8ED"/>
<path d="M75 227.5C75 226.119 76.1193 225 77.5 225C78.8807 225 80 226.119 80 227.5C80 228.881 78.8807 230 77.5 230C76.1193 230 75 228.881 75 227.5Z" fill="#E4E8ED"/>
<path d="M75 107.5C75 106.119 76.1193 105 77.5 105C78.8807 105 80 106.119 80 107.5C80 108.881 78.8807 110 77.5 110C76.1193 110 75 108.881 75 107.5Z" fill="#E4E8ED"/>
<path d="M240 242.5C240 241.119 241.119 240 242.5 240C243.881 240 245 241.119 245 242.5C245 243.881 243.881 245 242.5 245C241.119 245 240 243.881 240 242.5Z" fill="#E4E8ED"/>
<path d="M75 242.5C75 241.119 76.1193 240 77.5 240C78.8807 240 80 241.119 80 242.5C80 243.881 78.8807 245 77.5 245C76.1193 245 75 243.881 75 242.5Z" fill="#E4E8ED"/>
<path d="M75 122.5C75 121.119 76.1193 120 77.5 120C78.8807 120 80 121.119 80 122.5C80 123.881 78.8807 125 77.5 125C76.1193 125 75 123.881 75 122.5Z" fill="#E4E8ED"/>
<path d="M240 257.5C240 256.119 241.119 255 242.5 255C243.881 255 245 256.119 245 257.5C245 258.881 243.881 260 242.5 260C241.119 260 240 258.881 240 257.5Z" fill="#E4E8ED"/>
<path d="M75 257.5C75 256.119 76.1193 255 77.5 255C78.8807 255 80 256.119 80 257.5C80 258.881 78.8807 260 77.5 260C76.1193 260 75 258.881 75 257.5Z" fill="#E4E8ED"/>
<path d="M255 272.5C255 271.119 256.119 270 257.5 270C258.881 270 260 271.119 260 272.5C260 273.881 258.881 275 257.5 275C256.119 275 255 273.881 255 272.5Z" fill="#E4E8ED"/>
<path d="M90 272.5C90 271.119 91.1193 270 92.5 270C93.8807 270 95 271.119 95 272.5C95 273.881 93.8807 275 92.5 275C91.1193 275 90 273.881 90 272.5Z" fill="#E4E8ED"/>
<path d="M90 137.5C90 136.119 91.1193 135 92.5 135C93.8807 135 95 136.119 95 137.5C95 138.881 93.8807 140 92.5 140C91.1193 140 90 138.881 90 137.5Z" fill="#E4E8ED"/>
<path d="M255 287.5C255 286.119 256.119 285 257.5 285C258.881 285 260 286.119 260 287.5C260 288.881 258.881 290 257.5 290C256.119 290 255 288.881 255 287.5Z" fill="#E4E8ED"/>
<path d="M90 287.5C90 286.119 91.1193 285 92.5 285C93.8807 285 95 286.119 95 287.5C95 288.881 93.8807 290 92.5 290C91.1193 290 90 288.881 90 287.5Z" fill="#E4E8ED"/>
<path d="M90 152.5C90 151.119 91.1193 150 92.5 150C93.8807 150 95 151.119 95 152.5C95 153.881 93.8807 155 92.5 155C91.1193 155 90 153.881 90 152.5Z" fill="#E4E8ED"/>
<path d="M90 167.5C90 166.119 91.1193 165 92.5 165C93.8807 165 95 166.119 95 167.5C95 168.881 93.8807 170 92.5 170C91.1193 170 90 168.881 90 167.5Z" fill="#E4E8ED"/>
<path d="M90 182.5C90 181.119 91.1193 180 92.5 180C93.8807 180 95 181.119 95 182.5C95 183.881 93.8807 185 92.5 185C91.1193 185 90 183.881 90 182.5Z" fill="#E4E8ED"/>
<path d="M90 197.5C90 196.119 91.1193 195 92.5 195C93.8807 195 95 196.119 95 197.5C95 198.881 93.8807 200 92.5 200C91.1193 200 90 198.881 90 197.5Z" fill="#E4E8ED"/>
<path d="M90 212.5C90 211.119 91.1193 210 92.5 210C93.8807 210 95 211.119 95 212.5C95 213.881 93.8807 215 92.5 215C91.1193 215 90 213.881 90 212.5Z" fill="#E4E8ED"/>
<path d="M90 92.5C90 91.1193 91.1193 90 92.5 90C93.8807 90 95 91.1193 95 92.5C95 93.8807 93.8807 95 92.5 95C91.1193 95 90 93.8807 90 92.5Z" fill="#E4E8ED"/>
<path d="M90 227.5C90 226.119 91.1193 225 92.5 225C93.8807 225 95 226.119 95 227.5C95 228.881 93.8807 230 92.5 230C91.1193 230 90 228.881 90 227.5Z" fill="#E4E8ED"/>
<path d="M90 107.5C90 106.119 91.1193 105 92.5 105C93.8807 105 95 106.119 95 107.5C95 108.881 93.8807 110 92.5 110C91.1193 110 90 108.881 90 107.5Z" fill="#E4E8ED"/>
<path d="M90 242.5C90 241.119 91.1193 240 92.5 240C93.8807 240 95 241.119 95 242.5C95 243.881 93.8807 245 92.5 245C91.1193 245 90 243.881 90 242.5Z" fill="#E4E8ED"/>
<path d="M90 122.5C90 121.119 91.1193 120 92.5 120C93.8807 120 95 121.119 95 122.5C95 123.881 93.8807 125 92.5 125C91.1193 125 90 123.881 90 122.5Z" fill="#E4E8ED"/>
<path d="M255 257.5C255 256.119 256.119 255 257.5 255C258.881 255 260 256.119 260 257.5C260 258.881 258.881 260 257.5 260C256.119 260 255 258.881 255 257.5Z" fill="#E4E8ED"/>
<path d="M90 257.5C90 256.119 91.1193 255 92.5 255C93.8807 255 95 256.119 95 257.5C95 258.881 93.8807 260 92.5 260C91.1193 260 90 258.881 90 257.5Z" fill="#E4E8ED"/>
<path d="M270 272.5C270 271.119 271.119 270 272.5 270C273.881 270 275 271.119 275 272.5C275 273.881 273.881 275 272.5 275C271.119 275 270 273.881 270 272.5Z" fill="#E4E8ED"/>
<path d="M105 272.5C105 271.119 106.119 270 107.5 270C108.881 270 110 271.119 110 272.5C110 273.881 108.881 275 107.5 275C106.119 275 105 273.881 105 272.5Z" fill="#E4E8ED"/>
<path d="M105 137.5C105 136.119 106.119 135 107.5 135C108.881 135 110 136.119 110 137.5C110 138.881 108.881 140 107.5 140C106.119 140 105 138.881 105 137.5Z" fill="#E4E8ED"/>
<path d="M270 287.5C270 286.119 271.119 285 272.5 285C273.881 285 275 286.119 275 287.5C275 288.881 273.881 290 272.5 290C271.119 290 270 288.881 270 287.5Z" fill="#E4E8ED"/>
<path d="M105 287.5C105 286.119 106.119 285 107.5 285C108.881 285 110 286.119 110 287.5C110 288.881 108.881 290 107.5 290C106.119 290 105 288.881 105 287.5Z" fill="#E4E8ED"/>
<path d="M105 152.5C105 151.119 106.119 150 107.5 150C108.881 150 110 151.119 110 152.5C110 153.881 108.881 155 107.5 155C106.119 155 105 153.881 105 152.5Z" fill="#E4E8ED"/>
<path d="M105 167.5C105 166.119 106.119 165 107.5 165C108.881 165 110 166.119 110 167.5C110 168.881 108.881 170 107.5 170C106.119 170 105 168.881 105 167.5Z" fill="#E4E8ED"/>
<path d="M105 182.5C105 181.119 106.119 180 107.5 180C108.881 180 110 181.119 110 182.5C110 183.881 108.881 185 107.5 185C106.119 185 105 183.881 105 182.5Z" fill="#E4E8ED"/>
<path d="M105 197.5C105 196.119 106.119 195 107.5 195C108.881 195 110 196.119 110 197.5C110 198.881 108.881 200 107.5 200C106.119 200 105 198.881 105 197.5Z" fill="#E4E8ED"/>
<path d="M105 212.5C105 211.119 106.119 210 107.5 210C108.881 210 110 211.119 110 212.5C110 213.881 108.881 215 107.5 215C106.119 215 105 213.881 105 212.5Z" fill="#E4E8ED"/>
<path d="M105 227.5C105 226.119 106.119 225 107.5 225C108.881 225 110 226.119 110 227.5C110 228.881 108.881 230 107.5 230C106.119 230 105 228.881 105 227.5Z" fill="#E4E8ED"/>
<path d="M105 107.5C105 106.119 106.119 105 107.5 105C108.881 105 110 106.119 110 107.5C110 108.881 108.881 110 107.5 110C106.119 110 105 108.881 105 107.5Z" fill="#E4E8ED"/>
<path d="M105 242.5C105 241.119 106.119 240 107.5 240C108.881 240 110 241.119 110 242.5C110 243.881 108.881 245 107.5 245C106.119 245 105 243.881 105 242.5Z" fill="#E4E8ED"/>
<path d="M105 122.5C105 121.119 106.119 120 107.5 120C108.881 120 110 121.119 110 122.5C110 123.881 108.881 125 107.5 125C106.119 125 105 123.881 105 122.5Z" fill="#E4E8ED"/>
<path d="M105 257.5C105 256.119 106.119 255 107.5 255C108.881 255 110 256.119 110 257.5C110 258.881 108.881 260 107.5 260C106.119 260 105 258.881 105 257.5Z" fill="#E4E8ED"/>
<path d="M120 272.5C120 271.119 121.119 270 122.5 270C123.881 270 125 271.119 125 272.5C125 273.881 123.881 275 122.5 275C121.119 275 120 273.881 120 272.5Z" fill="#E4E8ED"/>
<path d="M120 137.5C120 136.119 121.119 135 122.5 135C123.881 135 125 136.119 125 137.5C125 138.881 123.881 140 122.5 140C121.119 140 120 138.881 120 137.5Z" fill="#E4E8ED"/>
<path d="M285 287.5C285 286.119 286.119 285 287.5 285C288.881 285 290 286.119 290 287.5C290 288.881 288.881 290 287.5 290C286.119 290 285 288.881 285 287.5Z" fill="#E4E8ED"/>
<path d="M120 287.5C120 286.119 121.119 285 122.5 285C123.881 285 125 286.119 125 287.5C125 288.881 123.881 290 122.5 290C121.119 290 120 288.881 120 287.5Z" fill="#E4E8ED"/>
<path d="M120 152.5C120 151.119 121.119 150 122.5 150C123.881 150 125 151.119 125 152.5C125 153.881 123.881 155 122.5 155C121.119 155 120 153.881 120 152.5Z" fill="#E4E8ED"/>
<path d="M120 167.5C120 166.119 121.119 165 122.5 165C123.881 165 125 166.119 125 167.5C125 168.881 123.881 170 122.5 170C121.119 170 120 168.881 120 167.5Z" fill="#E4E8ED"/>
<path d="M120 182.5C120 181.119 121.119 180 122.5 180C123.881 180 125 181.119 125 182.5C125 183.881 123.881 185 122.5 185C121.119 185 120 183.881 120 182.5Z" fill="#E4E8ED"/>
<path d="M120 197.5C120 196.119 121.119 195 122.5 195C123.881 195 125 196.119 125 197.5C125 198.881 123.881 200 122.5 200C121.119 200 120 198.881 120 197.5Z" fill="#E4E8ED"/>
<path d="M120 212.5C120 211.119 121.119 210 122.5 210C123.881 210 125 211.119 125 212.5C125 213.881 123.881 215 122.5 215C121.119 215 120 213.881 120 212.5Z" fill="#E4E8ED"/>
<path d="M120 227.5C120 226.119 121.119 225 122.5 225C123.881 225 125 226.119 125 227.5C125 228.881 123.881 230 122.5 230C121.119 230 120 228.881 120 227.5Z" fill="#E4E8ED"/>
<path d="M120 242.5C120 241.119 121.119 240 122.5 240C123.881 240 125 241.119 125 242.5C125 243.881 123.881 245 122.5 245C121.119 245 120 243.881 120 242.5Z" fill="#E4E8ED"/>
<path d="M120 122.5C120 121.119 121.119 120 122.5 120C123.881 120 125 121.119 125 122.5C125 123.881 123.881 125 122.5 125C121.119 125 120 123.881 120 122.5Z" fill="#E4E8ED"/>
<path d="M120 257.5C120 256.119 121.119 255 122.5 255C123.881 255 125 256.119 125 257.5C125 258.881 123.881 260 122.5 260C121.119 260 120 258.881 120 257.5Z" fill="#E4E8ED"/>
</svg>
